<?xml version="1.0" encoding="utf-8"?>
<svg version="1.1" xmlns="http://www.w3.org/2000/svg" width="701" height="646">
  <path fill="#00ffcc" stroke="#00ffcc" d="M 0 0 L 701 0 L 701 646 L 0 646 L 0 0 Z M 227 18 L 227 19 L 226 19 L 226 22 L 220 22 L 220 23 L 219 23 L 219 25 L 218 25 L 218 26 L 217 26 L 217 27 L 215 27 L 215 30 L 214 30 L 214 31 L 212 31 L 212 32 L 211 32 L 211 35 L 205 35 L 205 36 L 204 36 L 204 39 L 202 39 L 202 40 L 201 40 L 201 42 L 200 42 L 200 43 L 198 43 L 198 44 L 197 44 L 197 47 L 195 47 L 195 48 L 194 48 L 194 51 L 188 51 L 188 52 L 187 52 L 187 54 L 186 54 L 186 56 L 184 56 L 184 57 L 183 57 L 183 59 L 182 59 L 182 60 L 180 60 L 180 61 L 179 61 L 179 64 L 177 64 L 177 65 L 176 65 L 176 67 L 175 67 L 175 68 L 170 68 L 170 69 L 169 69 L 169 72 L 167 72 L 167 73 L 166 73 L 166 74 L 165 74 L 165 76 L 164 76 L 164 77 L 162 77 L 162 79 L 161 79 L 161 80 L 160 80 L 160 81 L 159 81 L 159 82 L 158 82 L 158 84 L 157 84 L 157 85 L 152 85 L 152 86 L 151 86 L 151 89 L 148 89 L 148 91 L 147 91 L 147 93 L 145 93 L 145 94 L 144 94 L 144 97 L 142 97 L 142 98 L 141 98 L 141 99 L 140 99 L 140 101 L 139 101 L 139 102 L 134 102 L 134 103 L 133 103 L 133 105 L 132 105 L 132 106 L 130 106 L 130 109 L 129 109 L 129 110 L 127 110 L 127 111 L 126 111 L 126 114 L 124 114 L 124 115 L 123 115 L 123 116 L 122 116 L 122 118 L 118 118 L 118 119 L 116 119 L 116 120 L 115 120 L 115 122 L 114 122 L 114 123 L 112 123 L 112 126 L 111 126 L 111 127 L 109 127 L 109 128 L 108 128 L 108 131 L 106 131 L 106 132 L 105 132 L 105 134 L 104 134 L 104 135 L 99 135 L 99 136 L 98 136 L 98 138 L 97 138 L 97 139 L 96 139 L 96 140 L 94 140 L 94 143 L 93 143 L 93 144 L 91 144 L 91 146 L 90 146 L 90 148 L 88 148 L 88 149 L 87 149 L 87 152 L 81 152 L 81 153 L 80 153 L 80 155 L 79 155 L 79 156 L 78 156 L 78 157 L 77 157 L 77 158 L 76 158 L 76 160 L 75 160 L 75 161 L 73 161 L 73 164 L 71 164 L 71 165 L 70 165 L 70 166 L 69 166 L 69 168 L 68 168 L 68 169 L 63 169 L 63 170 L 62 170 L 62 173 L 60 173 L 60 174 L 59 174 L 59 177 L 56 177 L 56 179 L 55 179 L 55 181 L 53 181 L 53 182 L 52 182 L 52 184 L 51 184 L 51 185 L 50 185 L 50 186 L 45 186 L 45 189 L 44 189 L 44 190 L 42 190 L 42 191 L 41 191 L 41 194 L 39 194 L 39 195 L 38 195 L 38 198 L 35 198 L 35 199 L 34 199 L 34 271 L 33 271 L 33 272 L 34 272 L 34 274 L 33 274 L 33 276 L 34 276 L 34 279 L 33 279 L 33 281 L 34 281 L 34 283 L 33 283 L 33 285 L 34 285 L 34 287 L 33 287 L 33 289 L 34 289 L 34 291 L 33 291 L 33 293 L 34 293 L 34 295 L 33 295 L 33 298 L 34 298 L 34 299 L 33 299 L 33 302 L 34 302 L 34 303 L 33 303 L 33 306 L 34 306 L 34 308 L 33 308 L 33 311 L 34 311 L 34 312 L 33 312 L 33 319 L 34 319 L 34 320 L 33 320 L 33 445 L 34 445 L 34 446 L 39 446 L 39 447 L 40 447 L 40 449 L 41 449 L 41 450 L 43 450 L 43 453 L 44 453 L 44 454 L 46 454 L 46 456 L 47 456 L 47 458 L 49 458 L 49 459 L 50 459 L 50 461 L 51 461 L 51 462 L 53 462 L 53 463 L 57 463 L 57 465 L 58 465 L 58 466 L 59 466 L 59 467 L 60 467 L 60 468 L 61 468 L 61 470 L 62 470 L 62 471 L 64 471 L 64 474 L 65 474 L 65 475 L 67 475 L 67 476 L 68 476 L 68 479 L 74 479 L 74 480 L 75 480 L 75 483 L 77 483 L 77 484 L 78 484 L 78 486 L 79 486 L 79 487 L 80 487 L 80 488 L 82 488 L 82 491 L 83 491 L 83 492 L 85 492 L 85 494 L 86 494 L 86 496 L 92 496 L 92 498 L 93 498 L 93 500 L 95 500 L 95 501 L 96 501 L 96 504 L 97 504 L 97 505 L 99 505 L 99 507 L 100 507 L 100 508 L 101 508 L 101 509 L 103 509 L 103 512 L 104 512 L 104 513 L 109 513 L 109 514 L 110 514 L 110 516 L 111 516 L 111 517 L 113 517 L 113 518 L 114 518 L 114 521 L 115 521 L 115 522 L 117 522 L 117 524 L 118 524 L 118 525 L 119 525 L 119 526 L 120 526 L 120 527 L 121 527 L 121 529 L 122 529 L 122 530 L 124 530 L 124 532 L 125 532 L 125 534 L 130 534 L 130 535 L 131 535 L 131 537 L 132 537 L 132 538 L 133 538 L 133 539 L 135 539 L 135 542 L 136 542 L 136 543 L 138 543 L 138 545 L 139 545 L 139 546 L 140 546 L 140 547 L 141 547 L 141 548 L 142 548 L 142 550 L 143 550 L 143 551 L 148 551 L 148 552 L 149 552 L 149 554 L 150 554 L 150 555 L 152 555 L 152 557 L 153 557 L 153 559 L 154 559 L 154 560 L 156 560 L 156 562 L 157 562 L 157 564 L 159 564 L 159 565 L 160 565 L 160 567 L 161 567 L 161 568 L 166 568 L 166 569 L 167 569 L 167 571 L 168 571 L 168 572 L 169 572 L 169 573 L 170 573 L 170 574 L 171 574 L 171 576 L 173 576 L 173 577 L 174 577 L 174 580 L 176 580 L 176 581 L 177 581 L 177 583 L 178 583 L 178 584 L 179 584 L 179 585 L 184 585 L 184 586 L 185 586 L 185 588 L 186 588 L 186 589 L 187 589 L 187 590 L 188 590 L 188 592 L 189 592 L 189 593 L 190 593 L 190 594 L 192 594 L 192 596 L 193 596 L 193 597 L 194 597 L 194 598 L 195 598 L 195 600 L 196 600 L 196 601 L 197 601 L 197 602 L 202 602 L 202 603 L 203 603 L 203 605 L 204 605 L 204 606 L 206 606 L 206 609 L 207 609 L 207 610 L 209 610 L 209 611 L 210 611 L 210 614 L 212 614 L 212 615 L 213 615 L 213 616 L 214 616 L 214 618 L 215 618 L 215 619 L 488 619 L 488 618 L 490 618 L 490 615 L 491 615 L 491 614 L 496 614 L 496 613 L 497 613 L 497 611 L 498 611 L 498 610 L 500 610 L 500 609 L 501 609 L 501 606 L 502 606 L 502 603 L 503 603 L 503 602 L 507 602 L 507 600 L 508 600 L 508 598 L 513 598 L 513 597 L 514 597 L 514 596 L 515 596 L 515 594 L 516 594 L 516 593 L 518 593 L 518 591 L 519 591 L 519 589 L 521 589 L 521 588 L 522 588 L 522 586 L 523 586 L 523 585 L 525 585 L 525 583 L 526 583 L 526 581 L 531 581 L 531 580 L 532 580 L 532 579 L 533 579 L 533 577 L 534 577 L 534 576 L 536 576 L 536 574 L 537 574 L 537 573 L 538 573 L 538 572 L 539 572 L 539 571 L 540 571 L 540 569 L 541 569 L 541 568 L 543 568 L 543 566 L 544 566 L 544 564 L 550 564 L 550 562 L 551 562 L 551 559 L 552 559 L 552 557 L 553 557 L 553 556 L 555 556 L 555 555 L 557 555 L 557 554 L 558 554 L 558 552 L 559 552 L 559 551 L 561 551 L 561 548 L 562 548 L 562 547 L 567 547 L 567 546 L 568 546 L 568 544 L 569 544 L 569 543 L 571 543 L 571 542 L 572 542 L 572 539 L 573 539 L 573 538 L 575 538 L 575 537 L 576 537 L 576 534 L 577 534 L 577 531 L 578 531 L 578 530 L 582 530 L 582 528 L 583 528 L 583 526 L 588 526 L 588 525 L 589 525 L 589 524 L 590 524 L 590 522 L 592 522 L 592 521 L 593 521 L 593 518 L 594 518 L 594 517 L 596 517 L 596 516 L 597 516 L 597 514 L 598 514 L 598 513 L 600 513 L 600 510 L 601 510 L 601 509 L 606 509 L 606 508 L 607 508 L 607 507 L 608 507 L 608 505 L 610 505 L 610 504 L 611 504 L 611 501 L 612 501 L 612 500 L 614 500 L 614 499 L 615 499 L 615 496 L 617 496 L 617 495 L 618 495 L 618 493 L 619 493 L 619 492 L 624 492 L 624 491 L 625 491 L 625 488 L 626 488 L 626 487 L 627 487 L 627 484 L 630 484 L 630 483 L 632 483 L 632 480 L 633 480 L 633 479 L 635 479 L 635 478 L 636 478 L 636 475 L 642 475 L 642 474 L 643 474 L 643 471 L 645 471 L 645 470 L 646 470 L 646 469 L 647 469 L 647 467 L 648 467 L 648 466 L 650 466 L 650 462 L 651 462 L 651 461 L 652 461 L 652 458 L 660 458 L 660 456 L 661 456 L 661 454 L 663 454 L 663 453 L 664 453 L 664 450 L 666 450 L 666 449 L 667 449 L 667 448 L 668 448 L 668 446 L 669 446 L 669 445 L 671 445 L 671 442 L 672 442 L 672 441 L 674 441 L 674 286 L 673 286 L 673 285 L 674 285 L 674 282 L 673 282 L 673 281 L 674 281 L 674 278 L 673 278 L 673 277 L 674 277 L 674 274 L 673 274 L 673 273 L 674 273 L 674 270 L 673 270 L 673 268 L 674 268 L 674 266 L 673 266 L 673 264 L 674 264 L 674 261 L 673 261 L 673 259 L 674 259 L 674 257 L 673 257 L 673 255 L 674 255 L 674 253 L 673 253 L 673 251 L 674 251 L 674 249 L 673 249 L 673 247 L 674 247 L 674 246 L 673 246 L 673 242 L 674 242 L 674 241 L 673 241 L 673 195 L 672 195 L 672 194 L 666 194 L 666 190 L 663 190 L 663 187 L 662 187 L 662 186 L 660 186 L 660 185 L 659 185 L 659 182 L 658 182 L 658 181 L 656 181 L 656 179 L 655 179 L 655 177 L 649 177 L 649 175 L 648 175 L 648 173 L 645 173 L 645 170 L 644 170 L 644 169 L 642 169 L 642 168 L 641 168 L 641 165 L 639 165 L 639 164 L 638 164 L 638 161 L 637 161 L 637 160 L 631 160 L 631 157 L 630 157 L 630 156 L 626 156 L 626 155 L 625 155 L 625 152 L 624 152 L 624 149 L 623 149 L 623 148 L 621 148 L 621 147 L 620 147 L 620 144 L 618 144 L 618 143 L 616 143 L 616 144 L 615 144 L 615 143 L 613 143 L 613 140 L 612 140 L 612 139 L 610 139 L 610 138 L 609 138 L 609 136 L 608 136 L 608 135 L 606 135 L 606 132 L 605 132 L 605 131 L 601 131 L 601 129 L 600 129 L 600 127 L 599 127 L 599 124 L 598 124 L 598 123 L 597 123 L 597 122 L 592 122 L 592 120 L 591 120 L 591 119 L 590 119 L 590 118 L 588 118 L 588 115 L 587 115 L 587 114 L 585 114 L 585 113 L 584 113 L 584 110 L 581 110 L 581 107 L 580 107 L 580 106 L 575 106 L 575 105 L 574 105 L 574 102 L 572 102 L 572 101 L 570 101 L 570 98 L 569 98 L 569 97 L 567 97 L 567 94 L 566 94 L 566 93 L 563 93 L 563 90 L 562 90 L 562 89 L 556 89 L 556 86 L 555 86 L 555 85 L 552 85 L 552 84 L 551 84 L 551 82 L 550 82 L 550 81 L 549 81 L 549 77 L 547 77 L 547 76 L 546 76 L 546 75 L 545 75 L 545 73 L 544 73 L 544 72 L 542 72 L 542 69 L 541 69 L 541 68 L 535 68 L 535 65 L 534 65 L 534 64 L 532 64 L 532 63 L 531 63 L 531 60 L 527 60 L 527 59 L 526 59 L 526 57 L 525 57 L 525 56 L 524 56 L 524 52 L 522 52 L 522 51 L 517 51 L 517 48 L 516 48 L 516 47 L 514 47 L 514 46 L 513 46 L 513 44 L 512 44 L 512 43 L 510 43 L 510 40 L 509 40 L 509 39 L 506 39 L 506 35 L 500 35 L 500 34 L 499 34 L 499 31 L 497 31 L 497 30 L 496 30 L 496 28 L 495 28 L 495 27 L 494 27 L 494 26 L 492 26 L 492 23 L 491 23 L 491 22 L 489 22 L 489 21 L 488 21 L 488 18 Z" />
</svg>