<?xml version="1.0" encoding="UTF-8" standalone="no"?>
<svg version="1.1" id="Layer_1" xmlns="http://www.w3.org/2000/svg" xmlns:xlink="http://www.w3.org/1999/xlink" x="0px" y="0px"
	 width="100%" viewBox="0 0 905 759" enable-background="new 0 0 905 759" xml:space="preserve">
  <style>
    .dharma-logo {
      fill: #00ffcc;
      stroke: #00ffcc;
      stroke-width: 1px;
    }
    .scanlines {
      fill: none;
      stroke: #001208;
      stroke-width: 0.2px;
      opacity: 0.1;
    }
    .bg {
      fill: #001208;
    }
  </style>
  
  <!-- Background -->
  <rect class="bg" x="0" y="0" width="905" height="759" />
  
  <!-- Scanlines effect for CRT look -->
  <g class="scanlines">
    <path d="M0,10 H905 M0,20 H905 M0,30 H905 M0,40 H905 M0,50 H905 M0,60 H905 M0,70 H905" />
    <path d="M0,80 H905 M0,90 H905 M0,100 H905 M0,110 H905 M0,120 H905 M0,130 H905 M0,140 H905" />
    <path d="M0,150 H905 M0,160 H905 M0,170 H905 M0,180 H905 M0,190 H905 M0,200 H905 M0,210 H905" />
    <path d="M0,220 H905 M0,230 H905 M0,240 H905 M0,250 H905 M0,260 H905 M0,270 H905 M0,280 H905" />
    <path d="M0,290 H905 M0,300 H905 M0,310 H905 M0,320 H905 M0,330 H905 M0,340 H905 M0,350 H905" />
    <path d="M0,360 H905 M0,370 H905 M0,380 H905 M0,390 H905 M0,400 H905 M0,410 H905 M0,420 H905" />
    <path d="M0,430 H905 M0,440 H905 M0,450 H905 M0,460 H905 M0,470 H905 M0,480 H905 M0,490 H905" />
    <path d="M0,500 H905 M0,510 H905 M0,520 H905 M0,530 H905 M0,540 H905 M0,550 H905 M0,560 H905" />
    <path d="M0,570 H905 M0,580 H905 M0,590 H905 M0,600 H905 M0,610 H905 M0,620 H905 M0,630 H905" />
    <path d="M0,640 H905 M0,650 H905 M0,660 H905 M0,670 H905 M0,680 H905 M0,690 H905 M0,700 H905" />
    <path d="M0,710 H905 M0,720 H905 M0,730 H905 M0,740 H905 M0,750 H905" />
  </g>
  
  <!-- DHARMA logo -->
  <g class="dharma-logo" transform="translate(452.5, 379.5) scale(0.85)">
    <!-- Outer octagon -->
    <path d="M0,-220 L155.56,-155.56 L220,0 L155.56,155.56 L0,220 L-155.56,155.56 L-220,0 L-155.56,-155.56 Z" 
          fill="none" stroke-width="5" />
    
    <!-- Inner octagon -->
    <path d="M0,-150 L106.07,-106.07 L150,0 L106.07,106.07 L0,150 L-106.07,106.07 L-150,0 L-106.07,-106.07 Z" 
          fill="none" stroke-width="3" />
    
    <!-- I-Ching trigrams (8 positions) -->
    <!-- Top -->
    <g transform="translate(0, -180)">
      <line x1="-30" y1="0" x2="30" y2="0" stroke-width="5" />
      <line x1="-30" y1="-15" x2="30" y2="-15" stroke-width="5" />
      <line x1="-30" y1="-30" x2="30" y2="-30" stroke-width="5" />
    </g>
    
    <!-- Top Right -->
    <g transform="translate(127.28, -127.28) rotate(45)">
      <line x1="-30" y1="0" x2="-10" y2="0" stroke-width="5" />
      <line x1="10" y1="0" x2="30" y2="0" stroke-width="5" />
      <line x1="-30" y1="-15" x2="-10" y2="-15" stroke-width="5" />
      <line x1="10" y1="-15" x2="30" y2="-15" stroke-width="5" />
      <line x1="-30" y1="-30" x2="30" y2="-30" stroke-width="5" />
    </g>
    
    <!-- Right -->
    <g transform="translate(180, 0) rotate(90)">
      <line x1="-30" y1="0" x2="30" y2="0" stroke-width="5" />
      <line x1="-30" y1="-15" x2="-10" y2="-15" stroke-width="5" />
      <line x1="10" y1="-15" x2="30" y2="-15" stroke-width="5" />
      <line x1="-30" y1="-30" x2="-10" y2="-30" stroke-width="5" />
      <line x1="10" y1="-30" x2="30" y2="-30" stroke-width="5" />
    </g>
    
    <!-- Bottom Right -->
    <g transform="translate(127.28, 127.28) rotate(135)">
      <line x1="-30" y1="0" x2="-10" y2="0" stroke-width="5" />
      <line x1="10" y1="0" x2="30" y2="0" stroke-width="5" />
      <line x1="-30" y1="-15" x2="30" y2="-15" stroke-width="5" />
      <line x1="-30" y1="-30" x2="-10" y2="-30" stroke-width="5" />
      <line x1="10" y1="-30" x2="30" y2="-30" stroke-width="5" />
    </g>
    
    <!-- Bottom -->
    <g transform="translate(0, 180) rotate(180)">
      <line x1="-30" y1="0" x2="30" y2="0" stroke-width="5" />
      <line x1="-30" y1="-15" x2="30" y2="-15" stroke-width="5" />
      <line x1="-30" y1="-30" x2="30" y2="-30" stroke-width="5" />
    </g>
    
    <!-- Bottom Left -->
    <g transform="translate(-127.28, 127.28) rotate(225)">
      <line x1="-30" y1="0" x2="30" y2="0" stroke-width="5" />
      <line x1="-30" y1="-15" x2="-10" y2="-15" stroke-width="5" />
      <line x1="10" y1="-15" x2="30" y2="-15" stroke-width="5" />
      <line x1="-30" y1="-30" x2="30" y2="-30" stroke-width="5" />
    </g>
    
    <!-- Left -->
    <g transform="translate(-180, 0) rotate(270)">
      <line x1="-30" y1="0" x2="-10" y2="0" stroke-width="5" />
      <line x1="10" y1="0" x2="30" y2="0" stroke-width="5" />
      <line x1="-30" y1="-15" x2="30" y2="-15" stroke-width="5" />
      <line x1="-30" y1="-30" x2="30" y2="-30" stroke-width="5" />
    </g>
    
    <!-- Top Left -->
    <g transform="translate(-127.28, -127.28) rotate(315)">
      <line x1="-30" y1="0" x2="30" y2="0" stroke-width="5" />
      <line x1="-30" y1="-15" x2="-10" y2="-15" stroke-width="5" />
      <line x1="10" y1="-15" x2="30" y2="-15" stroke-width="5" />
      <line x1="-30" y1="-30" x2="-10" y2="-30" stroke-width="5" />
      <line x1="10" y1="-30" x2="30" y2="-30" stroke-width="5" />
    </g>
    
    <!-- Swan station symbol (center) -->
    <circle cx="0" cy="0" r="70" fill="none" stroke-width="4" />
    <path d="M0,-35 C40,-35 40,35 0,35 C-40,35 -40,-35 0,-35 Z" fill="none" stroke-width="4" />
    <path d="M-5,0 C-5,-20 25,-20 25,5 C25,30 -5,5 -5,0 Z" fill="#00ffcc" stroke="none" />
    <circle cx="15" cy="-10" r="5" fill="#00ffcc" stroke="none" />
  </g>
</svg>