<?xml version="1.0" encoding="UTF-8"?>
<svg version="1.1" xmlns="http://www.w3.org/2000/svg" width="701" height="646">
  <path fill="#00ffcc" stroke="#00ffcc" d="M0,0 L701,0 L701,646 L0,646 Z M227,18 L227,19 L226,19 L226,22 L220,22 L220,23 L219,23 L219,25 L218,25 L218,26 L217,26 L217,27 L215,27 L215,30 L214,30 L214,31 L212,31 L212,32 L211,32 L211,35 L205,35 L205,36 L204,36 L204,39 L202,39 L202,40 L201,40 L201,42 L200,42 L200,43 L198,43 L198,44 L197,44 L197,47 L195,47 L195,48 L194,48 L194,51 L188,51 L188,52 L187,52 L187,54 L186,54 L186,56 L184,56 L184,57 L183,57 L183,59 L182,59 L182,60 L180,60 L180,61 L179,61 L179,64 L177,64 L177,65 L176,65 L176,67 L175,67 L175,68 L170,68 L170,69 L169,69 L169,72 L167,72 L167,73 L166,73 L166,74 L165,74 L165,76 L164,76 L164,77 L162,77 L162,79 L161,79 L161,80 L160,80 L160,81 L159,81 L159,82 L158,82 L158,84 L157,84 L157,85 L152,85 L152,86 L151,86 L151,89 L148,89 L148,91 L147,91 L147,93 L145,93 L145,94 L144,94 L144,97 L142,97 L142,98 L141,98 L141,99 L140,99 L140,101 L139,101 L139,102 L134,102 L134,103 L133,103 L133,105 L132,105 L132,106 L130,106 L130,109 L129,109 L129,110 L127,110 L127,111 L126,111 L126,114 L124,114 L124,115 L123,115 L123,116 L122,116 L122,118 L118,118 L118,119 L116,119 L116,120 L115,120 L115,122 L114,122 L114,123 L112,123 L112,126 L111,126 L111,127 L109,127 L109,128 L108,128 L108,131 L106,131 L106,132 L105,132 L105,134 L104,134 L104,135 L99,135 L99,136 L98,136 L98,138 L97,138 L97,139 L96,139 L96,140 L94,140 L94,143 L93,143 L93,144 L91,144 L91,146 L90,146 L90,148 L88,148 L88,149 L87,149 L87,152 L81,152 L81,153 L80,153 L80,155 L79,155 L79,156 L78,156 L78,157 L77,157 L77,158 L76,158 L76,160 L75,160 L75,161 L73,161 L73,164 L71,164 L71,165 L70,165 L70,166 L69,166 L69,168 L68,168 L68,169 L63,169 L63,170 L62,170 L62,173 L60,173 L60,174 L59,174 L59,177 L56,177 L56,179 L55,179 L55,181 L53,181 L53,182 L52,182 L52,184 L51,184 L51,185 L50,185 L50,186 L45,186 L45,189 L44,189 L44,190 L42,190 L42,191 L41,191 L41,194 L39,194 L39,195 L38,195 L38,198 L35,198 L35,199 L34,199 L34,271 L33,271 L33,272 L34,272 L34,274 L33,274 L33,276 L34,276 L34,279 L33,279 L33,281 L34,281 L34,283 L33,283 L33,285 L34,285 L34,287 L33,287 L33,289 L34,289 L34,291 L33,291 L33,293 L34,293 L34,295 L33,295 L33,298 L34,298 L34,299 L33,299 L33,302 L34,302 L34,303 L33,303 L33,306 L34,306 L34,308 L33,308 L33,311 L34,311 L34,312 L33,312 L33,319 L34,319 L34,320 L33,320 L33,445 L34,445 L34,446 L39,446 L39,447 L40,447 L40,449 L41,449 L41,450 L43,450 L43,453 L44,453 L44,454 L46,454 L46,456 L47,456 L47,458 L49,458 L49,459 L50,459 L50,461 L51,461 L51,462 L53,462 L53,463 L57,463 L57,465 L58,465 L58,466 L59,466 L59,467 L60,467 L60,468 L61,468 L61,470 L62,470 L62,471 L64,471 L64,474 L65,474 L65,475 L67,475 L67,476 L68,476 L68,479 L74,479 L74,480 L75,480 L75,483 L77,483 L77,484 L78,484 L78,486 L79,486 L79,487 L80,487 L80,488 L82,488 L82,491 L83,491 L83,492 L85,492 L85,494 L86,494 L86,496 L92,496 L92,498 L93,498 L93,500 L95,500 L95,501 L96,501 L96,504 L97,504 L97,505 L99,505 L99,507 L100,507 L100,508 L101,508 L101,509 L103,509 L103,512 L104,512 L104,513 L109,513 L109,514 L110,514 L110,516 L111,516 L111,517 L113,517 L113,518 L114,518 L114,521 L115,521 L115,522 L117,522 L117,524 L118,524 L118,525 L119,525 L119,526 L120,526 L120,527 L121,527 L121,529 L122,529 L122,530 L124,530 L124,532 L125,532 L125,534 L130,534 L130,535 L131,535 L131,537 L132,537 L132,538 L133,538 L133,539 L135,539 L135,542 L136,542 L136,543 L138,543 L138,545 L139,545 L139,546 L140,546 L140,547 L141,547 L141,548 L142,548 L142,550 L143,550 L143,551 L148,551 L148,552 L149,552 L149,554 L150,554 L150,555 L152,555 L152,557 L153,557 L153,559 L154,559 L154,560 L156,560 L156,562 L157,562 L157,564 L159,564 L159,565 L160,565 L160,567 L161,567 L161,568 L166,568 L166,569 L167,569 L167,571 L168,571 L168,572 L169,572 L169,573 L170,573 L170,574 L171,574 L171,576 L173,576 L173,577 L174,577 L174,580 L176,580 L176,581 L177,581 L177,583 L178,583 L178,584 L179,584 L179,585 L184,585 L184,586 L185,586 L185,588 L186,588 L186,589 L187,589 L187,590 L188,590 L188,592 L189,592 L189,593 L190,593 L190,594 L192,594 L192,596 L193,596 L193,597 L194,597 L194,598 L195,598 L195,600 L196,600 L196,601 L197,601 L197,602 L202,602 L202,603 L203,603 L203,605 L204,605 L204,606 L206,606 L206,609 L207,609 L207,610 L209,610 L209,611 L210,611 L210,614 L212,614 L212,615 L213,615 L213,616 L214,616 L214,618 L215,618 L215,619 L488,619 L488,618 L490,618 L490,615 L491,615 L491,614 L496,614 L496,613 L497,613 L497,611 L498,611 L498,610 L500,610 L500,609 L501,609 L501,606 L502,606 L502,603 L503,603 L503,602 L507,602 L507,600 L508,600 L508,598 L513,598 L513,597 L514,597 L514,596 L515,596 L515,594 L516,594 L516,593 L518,593 L518,591 L519,591 L519,589 L521,589 L521,588 L522,588 L522,586 L523,586 L523,585 L525,585 L525,583 L526,583 L526,581 L531,581 L531,580 L532,580 L532,579 L533,579 L533,577 L534,577 L534,576 L536,576 L536,574 L537,574 L537,573 L538,573 L538,572 L539,572 L539,571 L540,571 L540,569 L541,569 L541,568 L543,568 L543,566 L544,566 L544,564 L550,564 L550,562 L551,562 L551,559 L552,559 L552,557 L553,557 L553,556 L555,556 L555,555 L557,555 L557,554 L558,554 L558,552 L559,552 L559,551 L561,551 L561,548 L562,548 L562,547 L567,547 L567,546 L568,546 L568,544 L569,544 L569,543 L571,543 L571,542 L572,542 L572,539 L573,539 L573,538 L575,538 L575,537 L576,537 L576,534 L577,534 L577,531 L578,531 L578,530 L582,530 L582,528 L583,528 L583,526 L588,526 L588,525 L589,525 L589,524 L590,524 L590,522 L592,522 L592,521 L593,521 L593,518 L594,518 L594,517 L596,517 L596,516 L597,516 L597,514 L598,514 L598,513 L600,513 L600,510 L601,510 L601,509 L606,509 L606,508 L607,508 L607,507 L608,507 L608,505 L610,505 L610,504 L611,504 L611,501 L612,501 L612,500 L614,500 L614,499 L615,499 L615,496 L617,496 L617,495 L618,495 L618,493 L619,493 L619,492 L624,492 L624,491 L625,491 L625,488 L626,488 L626,487 L627,487 L627,484 L630,484 L630,483 L632,483 L632,480 L633,480 L633,479 L635,479 L635,478 L636,478 L636,475 L642,475 L642,474 L643,474 L643,471 L645,471 L645,470 L646,470 L646,469 L647,469 L647,467 L648,467 L648,466 L650,466 L650,462 L651,462 L651,461 L652,461 L652,458 L660,458 L660,456 L661,456 L661,454 L663,454 L663,453 L664,453 L664,450 L666,450 L666,449 L667,449 L667,448 L668,448 L668,446 L669,446 L669,445 L671,445 L671,442 L672,442 L672,441 L674,441 L674,286 L673,286 L673,285 L674,285 L674,282 L673,282 L673,281 L674,281 L674,278 L673,278 L673,277 L674,277 L674,274 L673,274 L673,273 L674,273 L674,270 L673,270 L673,268 L674,268 L674,266 L673,266 L673,264 L674,264 L674,261 L673,261 L673,259 L674,259 L674,257 L673,257 L673,255 L674,255 L674,253 L673,253 L673,251 L674,251 L674,249 L673,249 L673,247 L674,247 L674,246 L673,246 L673,242 L674,242 L674,241 L673,241 L673,195 L672,195 L672,194 L666,194 L666,190 L663,190 L663,187 L662,187 L662,186 L660,186 L660,185 L659,185 L659,182 L658,182 L658,181 L656,181 L656,179 L655,179 L655,177 L649,177 L649,175 L648,175 L648,173 L645,173 L645,170 L644,170 L644,169 L642,169 L642,168 L641,168 L641,165 L639,165 L639,164 L638,164 L638,161 L637,161 L637,160 L631,160 L631,157 L630,157 L630,156 L626,156 L626,155 L625,155 L625,152 L624,152 L624,149 L623,149 L623,148 L621,148 L621,147 L620,147 L620,144 L618,144 L618,143 L616,143 L616,144 L615,144 L615,143 L613,143 L613,140 L612,140 L612,139 L610,139 L610,138 L609,138 L609,136 L608,136 L608,135 L606,135 L606,132 L605,132 L605,131 L601,131 L601,129 L600,129 L600,127 L599,127 L599,124 L598,124 L598,123 L597,123 L597,122 L592,122 L592,120 L591,120 L591,119 L590,119 L590,118 L588,118 L588,115 L587,115 L587,114 L585,114 L585,113 L584,113 L584,110 L581,110 L581,107 L580,107 L580,106 L575,106 L575,105 L574,105 L574,102 L572,102 L572,101 L570,101 L570,98 L569,98 L569,97 L567,97 L567,94 L566,94 L566,93 L563,93 L563,90 L562,90 L562,89 L556,89 L556,86 L555,86 L555,85 L552,85 L552,84 L551,84 L551,82 L550,82 L550,81 L549,81 L549,77 L547,77 L547,76 L546,76 L546,75 L545,75 L545,73 L544,73 L544,72 L542,72 L542,69 L541,69 L541,68 L535,68 L535,65 L534,65 L534,64 L532,64 L532,63 L531,63 L531,60 L527,60 L527,59 L526,59 L526,57 L525,57 L525,56 L524,56 L524,52 L522,52 L522,51 L517,51 L517,48 L516,48 L516,47 L514,47 L514,46 L513,46 L513,44 L512,44 L512,43 L510,43 L510,40 L509,40 L509,39 L506,39 L506,35 L500,35 L500,34 L499,34 L499,31 L497,31 L497,30 L496,30 L496,28 L495,28 L495,27 L494,27 L494,26 L492,26 L492,23 L491,23 L491,22 L489,22 L489,21 L488,21 L488,18 Z" />
  <path fill="#00ffcc" stroke="#00ffcc" d="M0,0 L255,0 L255,3 L256,3 L256,4 L258,4 L258,6 L259,6 L259,8 L261,8 L261,9 L262,9 L262,12 L264,12 L264,13 L269,13 L269,15 L270,15 L270,17 L272,17 L272,18 L273,18 L273,20 L274,20 L274,21 L276,21 L276,24 L277,24 L277,25 L279,25 L279,26 L280,26 L280,29 L286,29 L286,30 L287,30 L287,33 L289,33 L289,34 L290,34 L290,35 L291,35 L291,37 L292,37 L292,38 L294,38 L294,41 L295,41 L295,42 L297,42 L297,44 L298,44 L298,45 L299,45 L299,46 L304,46 L304,48 L305,48 L305,50 L308,50 L308,53 L309,53 L309,54 L311,54 L311,55 L312,55 L312,58 L314,58 L314,59 L315,59 L315,61 L316,61 L316,62 L317,62 L317,63 L322,63 L322,64 L323,64 L323,66 L324,66 L324,67 L326,67 L326,70 L327,70 L327,71 L329,71 L329,72 L330,72 L330,75 L333,75 L333,78 L334,78 L334,79 L339,79 L339,80 L340,80 L340,82 L341,82 L341,83 L342,83 L342,84 L344,84 L344,87 L345,87 L345,88 L347,88 L347,90 L348,90 L348,92 L350,92 L350,93 L351,93 L351,95 L352,95 L352,96 L357,96 L357,97 L358,97 L358,99 L359,99 L359,100 L360,100 L360,101 L361,101 L361,102 L362,102 L362,104 L363,104 L363,105 L365,105 L365,107 L366,107 L366,109 L368,109 L368,110 L369,110 L369,112 L370,112 L370,113 L375,113 L375,114 L376,114 L376,116 L377,116 L377,117 L379,117 L379,120 L380,120 L380,121 L381,121 L381,122 L383,122 L383,125 L384,125 L384,126 L386,126 L386,128 L387,128 L387,129 L388,129 L388,130 L393,130 L393,131 L394,131 L394,133 L395,133 L395,134 L397,134 L397,137 L398,137 L398,138 L400,138 L400,140 L401,140 L401,142 L403,142 L403,143 L404,143 L404,145 L405,145 L405,146 L406,146 L406,147 L411,147 L411,149 L412,149 L412,150 L413,150 L413,151 L414,151 L414,152 L415,152 L415,154 L416,154 L416,155 L418,155 L418,157 L419,157 L419,159 L421,159 L421,160 L422,160 L422,162 L423,162 L423,163 L424,163 L424,164 L429,164 L429,167 L430,167 L430,169 L429,169 L429,171 L430,171 L430,173 L429,173 L429,176 L430,176 L430,177 L429,177 L429,180 L430,180 L430,182 L429,182 L429,183 L430,183 L430,186 L429,186 L429,188 L430,188 L430,190 L429,190 L429,192 L430,192 L430,195 L429,195 L429,196 L430,196 L430,285 L431,285 L431,286 L430,286 L430,289 L431,289 L431,290 L430,290 L430,302 L431,302 L431,303 L430,303 L430,306 L431,306 L431,307 L430,307 L430,310 L431,310 L431,311 L430,311 L430,314 L431,314 L431,316 L430,316 L430,318 L431,318 L431,320 L430,320 L430,322 L431,322 L431,324 L430,324 L430,326 L431,326 L431,329 L430,329 L430,331 L431,331 L431,333 L430,333 L430,334 L431,334 L431,337 L430,337 L430,339 L431,339 L431,342 L430,342 L430,343 L431,343 L431,346 L430,346 L430,347 L431,347 L431,350 L430,350 L430,351 L431,351 L431,354 L430,354 L430,356 L431,356 L431,359 L430,359 L430,360 L431,360 L431,363 L430,363 L430,364 L431,364 L431,367 L430,367 L430,368 L431,368 L431,371 L430,371 L430,372 L431,372 L431,375 L430,375 L430,377 L431,377 L431,380 L430,380 L430,381 L431,381 L431,384 L430,384 L430,385 L431,385 L431,388 L430,388 L430,389 L431,389 L431,392 L430,392 L430,394 L431,394 L431,396 L430,396 L430,398 L431,398 L431,400 L430,400 L430,403 L429,403 L429,404 L427,404 L427,407 L426,407 L426,408 L424,408 L424,409 L423,409 L423,411 L422,411 L422,412 L421,412 L421,413 L420,413 L420,416 L414,416 L414,417 L413,417 L413,419 L412,419 L412,420 L411,420 L411,421 L410,421 L410,422 L409,422 L409,425 L406,425 L406,426 L405,426 L405,429 L403,429 L403,430 L402,430 L402,433 L396,433 L396,434 L395,434 L395,437 L393,437 L393,438 L392,438 L392,439 L391,439 L391,442 L388,442 L388,445 L387,445 L387,446 L385,446 L385,447 L384,447 L384,450 L379,450 L379,451 L377,451 L377,454 L375,454 L375,455 L374,455 L374,458 L372,458 L372,459 L371,459 L371,460 L370,460 L370,462 L369,462 L369,463 L367,463 L367,466 L366,466 L366,467 L361,467 L361,468 L360,468 L360,469 L359,469 L359,471 L357,471 L357,472 L356,472 L356,475 L354,475 L354,476 L353,476 L353,477 L352,477 L352,479 L351,479 L351,480 L350,480 L350,481 L349,481 L349,483 L348,483 L348,484 L343,484 L343,485 L342,485 L342,487 L341,487 L341,488 L339,488 L339,490 L338,490 L338,492 L336,492 L336,493 L335,493 L335,494 L334,494 L334,496 L333,496 L333,497 L332,497 L332,498 L331,498 L331,500 L330,500 L330,501 L325,501 L325,502 L324,502 L324,505 L321,505 L321,507 L320,507 L320,509 L318,509 L318,510 L317,510 L317,513 L315,513 L315,514 L314,514 L314,515 L313,515 L313,517 L312,517 L312,518 L310,518 L310,517 L309,517 L309,518 L307,518 L307,519 L306,519 L306,521 L305,521 L305,522 L303,522 L303,524 L302,524 L302,526 L300,526 L300,527 L299,527 L299,530 L297,530 L297,531 L296,531 L296,533 L295,533 L295,534 L290,534 L290,535 L289,535 L289,536 L288,536 L288,538 L287,538 L287,539 L285,539 L285,542 L284,542 L284,543 L282,543 L282,544 L281,544 L281,547 L279,547 L279,548 L278,548 L278,549 L277,549 L277,551 L272,551 L272,552 L271,552 L271,553 L270,553 L270,555 L269,555 L269,556 L268,556 L268,557 L267,557 L267,559 L266,559 L266,560 L264,560 L264,561 L263,561 L263,564 L257,564 L257,565 L256,565 L256,568" />
</svg>