<?xml version="1.0" encoding="utf-8"?>
<svg version="1.1" xmlns="http://www.w3.org/2000/svg" width="701" height="646">
  <path d="M 488 21 L 489 21 L 489 22 L 491 22 L 491 23 L 492 23 L 492 26 L 494 26 L 494 27 L 495 27 L 495 28 L 496 28 L 496 30 L 497 30 L 497 31 L 499 31 L 499 34 L 500 34 L 500 35 L 506 35 L 506 39 L 509 39 L 509 40 L 510 40 L 510 43 L 512 43 L 512 44 L 513 44 L 513 46 L 514 46 L 514 47 L 516 47 L 516 48 L 517 48 L 517 51 L 522 51 L 522 52 L 524 52 L 524 56 L 525 56 L 525 57 L 526 57 L 526 59 L 527 59 L 527 60 L 531 60 L 531 63 L 532 63 L 532 64 L 534 64 L 534 65 L 535 65 L 535 68 L 541 68 L 541 69 L 542 69 L 542 72 L 544 72 L 544 73 L 545 73 L 545 75 L 546 75 L 546 76 L 547 76 L 547 77 L 549 77 L 549 81 L 550 81 L 550 82 L 551 82 L 551 84 L 552 84 L 552 85 L 555 85 L 555 86 L 556 86 L 556 89 L 562 89 L 562 90 L 563 90 L 563 93 L 566 93 L 566 94 L 567 94 L 567 97 L 569 97 L 569 98 L 570 98 L 570 101 L 572 101 L 572 102 L 574 102 L 574 105 L 575 105 L 575 106 L 580 106 L 580 107 L 581 107 L 581 110 L 584 110 L 584 113 L 585 113 L 585 114 L 587 114 L 587 115 L 588 115 L 588 118 L 590 118 L 590 119 L 591 119 L 591 120 L 592 120 L 592 122 L 597 122 L 597 123 L 598 123 L 598 124 L 599 124 L 599 127 L 600 127 L 600 129 L 601 129 L 601 131 L 605 131 L 605 132 L 606 132 L 606 135 L 608 135 L 608 136 L 609 136 L 609 138 L 610 138 L 610 139 L 612 139 L 612 140 L 613 140 L 613 143 L 615 143 L 615 144 L 616 144 L 616 143 L 618 143 L 618 144 L 620 144 L 620 147 L 621 147 L 621 148 L 623 148 L 623 149 L 624 149 L 624 152 L 625 152 L 625 155 L 626 155 L 626 156 L 630 156 L 630 157 L 631 157 L 631 160 L 637 160 L 637 161 L 638 161 L 638 164 L 639 164 L 639 165 L 641 165 L 641 168 L 642 168 L 642 169 L 644 169 L 644 170 L 645 170 L 645 173 L 648 173 L 648 175 L 649 175 L 649 177 L 655 177 L 655 179 L 656 179 L 656 181 L 658 181 L 658 182 L 659 182 L 659 185 L 660 185 L 660 186 L 662 186 L 662 187 L 663 187 L 663 190 L 666 190 L 666 194 L 672 194 L 672 195 L 673 195 L 673 241 L 674 241 L 674 242 L 673 242 L 673 246 L 674 246 L 674 247 L 673 247 L 673 249 L 674 249 L 674 251 L 673 251 L 673 253 L 674 253 L 674 255 L 673 255 L 673 257 L 674 257 L 674 259 L 673 259 L 673 261 L 674 261 L 674 264 L 673 264 L 673 266 L 674 266 L 674 268 L 673 268 L 673 270 L 674 270 L 674 273 L 673 273 L 673 274 L 674 274 L 674 277 L 673 277 L 673 278 L 674 278 L 674 281 L 673 281 L 673 282 L 674 282 L 674 285 L 673 285 L 673 286 L 674 286 L 674 441 L 672 441 L 672 442 L 671 442 L 671 445 L 669 445 L 669 446 L 668 446 L 668 448 L 667 448 L 667 449 L 666 449 L 666 450 L 664 450 L 664 453 L 663 453 L 663 454 L 661 454 L 661 456 L 660 456 L 660 458 L 652 458 L 652 461 L 651 461 L 651 462 L 650 462 L 650 466 L 648 466 L 648 467 L 647 467 L 647 469 L 646 469 L 646 470 L 645 470 L 645 471 L 643 471 L 643 474 L 642 474 L 642 475 L 636 475 L 636 478 L 635 478 L 635 479 L 633 479 L 633 480 L 632 480 L 632 483 L 630 483 L 630 484 L 627 484 L 627 487 L 626 487 L 626 488 L 625 488 L 625 491 L 624 491 L 624 492 L 619 492 L 619 493 L 618 493 L 618 495 L 617 495 L 617 496 L 615 496 L 615 499 L 614 499 L 614 500 L 612 500 L 612 501 L 611 501 L 611 504 L 610 504 L 610 505 L 608 505 L 608 507 L 607 507 L 607 508 L 606 508 L 606 509 L 601 509 L 601 510 L 600 510 L 600 513 L 598 513 L 598 514 L 597 514 L 597 516 L 596 516 L 596 517 L 594 517 L 594 518 L 593 518 L 593 521 L 592 521 L 592 522 L 590 522 L 590 524 L 589 524 L 589 525 L 588 525 L 588 526 L 583 526 L 583 528 L 582 528 L 582 530 L 578 530 L 578 531 L 577 531 L 577 534 L 576 534 L 576 537 L 575 537 L 575 538 L 573 538 L 573 539 L 572 539 L 572 542 L 571 542 L 571 543 L 569 543 L 569 544 L 568 544 L 568 546 L 567 546 L 567 547 L 562 547 L 562 548 L 561 548 L 561 551 L 559 551 L 559 552 L 558 552 L 558 554 L 557 554 L 557 555 L 555 555 L 555 556 L 553 556 L 553 557 L 552 557 L 552 559 L 551 559 L 551 562 L 550 562 L 550 564 L 544 564 L 544 566 L 543 566 L 543 568 L 541 568 L 541 569 L 540 569 L 540 571 L 539 571 L 539 572 L 538 572 L 538 573 L 537 573 L 537 574 L 536 574 L 536 576 L 534 576 L 534 577 L 533 577 L 533 579 L 532 579 L 532 580 L 531 580 L 531 581 L 526 581 L 526 583 L 525 583 L 525 585 L 523 585 L 523 586 L 522 586 L 522 588 L 521 588 L 521 589 L 519 589 L 519 591 L 518 591 L 518 593 L 516 593 L 516 594 L 515 594 L 515 596 L 514 596 L 514 597 L 513 597 L 513 598 L 508 598 L 508 600 L 507 600 L 507 602 L 503 602 L 503 603 L 502 603 L 502 606 L 501 606 L 501 609 L 500 609 L 500 610 L 498 610 L 498 611 L 497 611 L 497 613 L 496 613 L 496 614 L 491 614 L 491 615 L 490 615 L 490 618 L 488 618 L 488 619 L 215 619 L 215 618 L 214 618 L 214 616 L 213 616 L 213 615 L 212 615 L 212 614 L 210 614 L 210 611 L 209 611 L 209 610 L 207 610 L 207 609 L 206 609 L 206 606 L 204 606 L 204 605 L 203 605 L 203 603 L 202 603 L 202 602 L 197 602 L 197 601 L 196 601 L 196 600 L 195 600 L 195 598 L 194 598 L 194 597 L 193 597 L 193 596 L 192 596 L 192 594 L 190 594 L 190 593 L 189 593 L 189 592 L 188 592 L 188 590 L 187 590 L 187 589 L 186 589 L 186 588 L 185 588 L 185 586 L 184 586 L 184 585 L 179 585 L 179 584 L 178 584 L 178 583 L 177 583 L 177 581 L 176 581 L 176 580 L 174 580 L 174 577 L 173 577 L 173 576 L 171 576 L 171 574 L 170 574 L 170 573 L 169 573 L 169 572 L 168 572 L 168 571 L 167 571 L 167 569 L 166 569 L 166 568 L 161 568 L 161 567 L 160 567 L 160 565 L 159 565 L 159 564 L 157 564 L 157 562 L 156 562 L 156 560 L 154 560 L 154 559 L 153 559 L 153 557 L 152 557 L 152 555 L 150 555 L 150 554 L 149 554 L 149 552 L 148 552 L 148 551 L 143 551 L 143 550 L 142 550 L 142 548 L 141 548 L 141 547 L 140 547 L 140 546 L 139 546 L 139 545 L 138 545 L 138 543 L 136 543 L 136 542 L 135 542 L 135 539 L 133 539 L 133 538 L 132 538 L 132 537 L 131 537 L 131 535 L 130 535 L 130 534 L 125 534 L 125 532 L 124 532 L 124 530 L 122 530 L 122 529 L 121 529 L 121 527 L 120 527 L 120 526 L 119 526 L 119 525 L 118 525 L 118 524 L 117 524 L 117 522 L 115 522 L 115 521 L 114 521 L 114 518 L 113 518 L 113 517 L 111 517 L 111 516 L 110 516 L 110 514 L 109 514 L 109 513 L 104 513 L 104 512 L 103 512 L 103 509 L 101 509 L 101 508 L 100 508 L 100 507 L 99 507 L 99 505 L 97 505 L 97 504 L 96 504 L 96 501 L 95 501 L 95 500 L 93 500 L 93 498 L 92 498 L 92 496 L 86 496 L 86 494 L 85 494 L 85 492 L 83 492 L 83 491 L 82 491 L 82 488 L 80 488 L 80 487 L 79 487 L 79 486 L 78 486 L 78 484 L 77 484 L 77 483 L 75 483 L 75 480 L 74 480 L 74 479 L 68 479 L 68 476 L 67 476 L 67 475 L 65 475 L 65 474 L 64 474 L 64 471 L 62 471 L 62 470 L 61 470 L 61 468 L 60 468 L 60 467 L 59 467 L 59 466 L 58 466 L 58 465 L 57 465 L 57 463 L 53 463 L 53 462 L 51 462 L 51 461 L 50 461 L 50 459 L 49 459 L 49 458 L 47 458 L 47 456 L 46 456 L 46 454 L 44 454 L 44 453 L 43 453 L 43 450 L 41 450 L 41 449 L 40 449 L 40 447 L 39 447 L 39 446 L 34 446 L 34 445 L 33 445 L 33 320 L 34 320 L 34 319 L 33 319 L 33 312 L 34 312 L 34 311 L 33 311 L 33 308 L 34 308 L 34 306 L 33 306 L 33 303 L 34 303 L 34 302 L 33 302 L 33 299 L 34 299 L 34 298 L 33 298 L 33 295 L 34 295 L 34 293 L 33 293 L 33 291 L 34 291 L 34 289 L 33 289 L 33 287 L 34 287 L 34 285 L 33 285 L 33 283 L 34 283 L 34 281 L 33 281 L 33 279 L 34 279 L 34 276 L 33 276 L 33 274 L 34 274 L 34 272 L 33 272 L 33 271 L 34 271 L 34 229.579 C 34.803 219.018 35.594 208.482 36.373 198 L 38 198 L 38 195 L 39 195 L 39 194 L 41 194 L 41 191 L 42 191 L 42 190 L 44 190 L 44 189 L 45 189 L 45 186 L 50 186 L 50 185 L 51 185 L 51 184 L 52 184 L 52 182 L 53 182 L 53 181 L 55 181 L 55 179 L 56 179 L 56 177 L 59 177 L 59 174 L 60 174 L 60 173 L 62 173 L 62 170 L 63 170 L 63 169 L 68 169 L 68 168 L 69 168 L 69 166 L 70 166 L 70 165 L 71 165 L 71 164 L 73 164 L 73 161 L 75 161 L 75 160 L 76 160 L 76 158 L 77 158 L 77 157 L 78 157 L 78 156 L 79 156 L 79 155 L 80 155 L 80 153 L 81 153 L 81 152 L 87 152 L 87 149 L 88 149 L 88 148 L 90 148 L 90 146 L 91 146 L 91 144 L 93 144 L 93 143 L 94 143 L 94 140 L 96 140 L 96 139 L 97 139 L 97 138 L 98 138 L 98 136 L 99 136 L 99 135 L 104 135 L 104 134 L 105 134 L 105 132 L 106 132 L 106 131 L 108 131 L 108 128 L 109 128 L 109 127 L 111 127 L 111 126 L 112 126 L 112 123 L 114 123 L 114 122 L 115 122 L 115 120 L 116 120 L 116 119 L 118 119 L 118 118 L 122 118 L 122 116 L 123 116 L 123 115 L 124 115 L 124 114 L 126 114 L 126 111 L 127 111 L 127 110 L 129 110 L 129 109 L 130 109 L 130 106 L 132 106 L 132 105 L 133 105 L 133 103 L 134 103 L 134 102 L 139 102 L 139 101 L 140 101 L 140 99 L 141 99 L 141 98 L 142 98 L 142 97 L 144 97 L 144 94 L 145 94 L 145 93 L 147 93 L 147 91 L 148 91 L 148 89 L 151 89 L 151 86 L 152 86 L 152 85 L 157 85 L 157 84 L 158 84 L 158 82 L 159 82 L 159 81 L 160 81 L 160 80 L 161 80 L 161 79 L 162 79 L 162 77 L 164 77 L 164 76 L 165 76 L 165 74 L 166 74 L 166 73 L 167 73 L 167 72 L 169 72 L 169 69 L 170 69 L 170 68 L 175 68 L 175 67 L 176 67 L 176 65 L 177 65 L 177 64 L 179 64 L 179 61 L 180 61 L 180 60 L 182 60 L 182 59 L 183 59 L 183 57 L 184 57 L 184 56 L 186 56 L 186 54 L 187 54 L 187 52 L 188 52 L 188 51 L 194 51 L 194 48 L 195 48 L 195 47 L 197 47 L 197 44 L 198 44 L 198 43 L 200 43 L 200 42 L 201 42 L 201 40 L 202 40 L 202 39 L 204 39 L 204 36 L 205 36 L 205 35 L 211 35 L 211 32 L 212 32 L 212 31 L 214 31 L 214 30 L 215 30 L 215 27 L 217 27 L 217 26 L 218 26 L 218 25 L 219 25 L 219 23 L 220 23 L 220 22 L 226 22 L 226 20.567 C 310.929 20.79 401.831 20.159 488 18.784 Z M 229 35 L 228 35 L 228 38 L 223 38 L 223 42 L 221 42 L 221 43 L 220 43 L 220 44 L 219 44 L 219 46 L 218 46 L 218 47 L 216 47 L 216 49 L 215 49 L 215 51 L 209 51 L 209 54 L 208 54 L 208 55 L 204 55 L 204 57 L 203 57 L 203 59 L 202 59 L 202 62 L 201 62 L 201 63 L 199 63 L 199 64 L 198 64 L 198 67 L 196 67 L 196 68 L 191 68 L 191 71 L 189 71 L 189 72 L 188 72 L 188 73 L 187 73 L 187 75 L 186 75 L 186 76 L 184 76 L 184 79 L 183 79 L 183 80 L 177 80 L 177 83 L 176 83 L 176 84 L 174 84 L 174 85 L 173 85 L 173 88 L 171 88 L 171 89 L 170 89 L 170 91 L 169 91 L 169 92 L 167 92 L 167 93 L 166 93 L 166 96 L 164 96 L 164 97 L 159 97 L 159 100 L 158 100 L 158 101 L 154 101 L 154 104 L 153 104 L 153 105 L 152 105 L 152 108 L 151 108 L 151 109 L 149 109 L 149 110 L 148 110 L 148 113 L 143 113 L 143 114 L 141 114 L 141 117 L 139 117 L 139 118 L 138 118 L 138 120 L 137 120 L 137 121 L 136 121 L 136 122 L 134 122 L 134 125 L 133 125 L 133 126 L 128 126 L 128 127 L 127 127 L 127 129 L 126 129 L 126 130 L 124 130 L 124 132 L 123 132 L 123 134 L 121 134 L 121 135 L 120 135 L 120 138 L 118 138 L 118 139 L 117 139 L 117 140 L 116 140 L 116 142 L 115 142 L 115 143 L 110 143 L 110 144 L 109 144 L 109 146 L 108 146 L 108 147 L 105 147 L 105 148 L 104 148 L 104 151 L 103 151 L 103 152 L 102 152 L 102 155 L 100 155 L 100 156 L 99 156 L 99 158 L 98 158 L 98 159 L 97 159 L 97 160 L 92 160 L 92 162 L 91 162 L 91 163 L 90 163 L 90 164 L 89 164 L 89 165 L 88 165 L 88 167 L 87 167 L 87 168 L 85 168 L 85 170 L 84 170 L 84 172 L 79 172 L 79 173 L 78 173 L 78 174 L 77 174 L 77 176 L 75 176 L 75 177 L 74 177 L 74 179 L 73 179 L 73 180 L 72 180 L 72 181 L 71 181 L 71 182 L 70 182 L 70 184 L 69 184 L 69 185 L 67 185 L 67 188 L 66 188 L 66 189 L 60 189 L 60 192 L 59 192 L 59 193 L 55 193 L 55 194 L 54 194 L 54 197 L 53 197 L 53 200 L 52 200 L 52 201 L 51 201 L 51 202 L 49 202 L 49 206 L 48 206 L 48 207 L 49 207 L 49 210 L 48 210 L 48 211 L 49 211 L 49 214 L 48 214 L 48 215 L 49 215 L 49 218 L 48 218 L 48 220 L 49 220 L 49 222 L 48 222 L 48 224 L 49 224 L 49 226 L 48 226 L 48 228 L 49 228 L 49 230 L 48 230 L 48 233 L 49 233 L 49 234 L 48 234 L 48 237 L 49 237 L 49 238 L 48 238 L 48 241 L 49 241 L 49 242 L 48 242 L 48 319 L 47 319 L 47 320 L 48 320 L 48 336 L 47 336 L 47 337 L 48 337 L 48 340 L 47 340 L 47 341 L 48 341 L 48 344 L 47 344 L 47 345 L 48 345 L 48 352 L 47 352 L 47 354 L 48 354 L 48 357 L 47 357 L 47 358 L 48 358 L 48 361 L 47 361 L 47 362 L 48 362 L 48 365 L 47 365 L 47 367 L 48 367 L 48 369 L 47 369 L 47 371 L 48 371 L 48 373 L 47 373 L 47 375 L 48 375 L 48 378 L 47 378 L 47 379 L 48 379 L 48 382 L 47 382 L 47 384 L 48 384 L 48 386 L 47 386 L 47 388 L 48 388 L 48 390 L 47 390 L 47 392 L 48 392 L 48 394 L 47 394 L 47 396 L 48 396 L 48 398 L 47 398 L 47 400 L 48 400 L 48 403 L 47 403 L 47 405 L 48 405 L 48 407 L 47 407 L 47 409 L 48 409 L 48 411 L 47 411 L 47 413 L 48 413 L 48 415 L 47 415 L 47 418 L 48 418 L 48 420 L 47 420 L 47 422 L 48 422 L 48 424 L 47 424 L 47 426 L 48 426 L 48 428 L 47 428 L 47 430 L 48 430 L 48 432 L 47 432 L 47 434 L 48 434 L 48 436 L 47 436 L 47 438 L 48 438 L 48 442 L 52 442 L 52 443 L 53 443 L 53 446 L 57 446 L 57 447 L 58 447 L 58 449 L 59 449 L 59 450 L 61 450 L 61 451 L 62 451 L 62 454 L 67 454 L 67 455 L 68 455 L 68 456 L 69 456 L 69 459 L 72 459 L 72 461 L 73 461 L 73 463 L 75 463 L 75 464 L 76 464 L 76 467 L 77 467 L 77 468 L 78 468 L 78 471 L 85 471 L 85 472 L 86 472 L 86 473 L 87 473 L 87 475 L 88 475 L 88 476 L 90 476 L 90 479 L 91 479 L 91 480 L 93 480 L 93 481 L 94 481 L 94 484 L 96 484 L 96 485 L 97 485 L 97 488 L 101 488 L 101 489 L 102 489 L 102 490 L 103 490 L 103 492 L 106 492 L 106 493 L 107 493 L 107 494 L 108 494 L 108 497 L 111 497 L 111 500 L 112 500 L 112 501 L 114 501 L 114 502 L 115 502 L 115 505 L 121 505 L 121 506 L 122 506 L 122 509 L 124 509 L 124 510 L 125 510 L 125 513 L 126 513 L 126 514 L 127 514 L 127 518 L 132 518 L 132 519 L 133 519 L 133 522 L 139 522 L 139 523 L 140 523 L 140 526 L 142 526 L 142 527 L 143 527 L 143 530 L 145 530 L 145 531 L 146 531 L 146 532 L 147 532 L 147 535 L 150 535 L 150 537 L 151 537 L 151 539 L 157 539 L 157 541 L 158 541 L 158 543 L 159 543 L 159 544 L 161 544 L 161 547 L 163 547 L 163 548 L 164 548 L 164 549 L 165 549 L 165 551 L 166 551 L 166 552 L 168 552 L 168 555 L 169 555 L 169 556 L 175 556 L 175 560 L 176 560 L 176 561 L 177 561 L 177 564 L 181 564 L 181 565 L 182 565 L 182 567 L 183 567 L 183 568 L 184 568 L 184 569 L 186 569 L 186 572 L 187 572 L 187 573 L 192 573 L 192 574 L 193 574 L 193 576 L 194 576 L 194 577 L 196 577 L 196 578 L 197 578 L 197 581 L 199 581 L 199 582 L 200 582 L 200 585 L 201 585 L 201 586 L 202 586 L 202 589 L 203 589 L 203 590 L 211 590 L 211 593 L 212 593 L 212 594 L 214 594 L 214 595 L 215 595 L 215 598 L 217 598 L 217 599 L 218 599 L 218 601 L 219 601 L 219 602 L 485 602 L 485 599 L 486 599 L 486 598 L 492 598 L 492 595 L 493 595 L 493 594 L 495 594 L 495 593 L 496 593 L 496 591 L 497 591 L 497 590 L 498 590 L 498 589 L 499 589 L 499 587 L 500 587 L 500 586 L 501 586 L 501 585 L 506 585 L 506 583 L 507 583 L 507 582 L 508 582 L 508 581 L 510 581 L 510 578 L 511 578 L 511 577 L 513 577 L 513 576 L 514 576 L 514 573 L 516 573 L 516 572 L 517 572 L 517 570 L 518 570 L 518 569 L 519 569 L 519 568 L 524 568 L 524 567 L 525 567 L 525 565 L 526 565 L 526 564 L 528 564 L 528 561 L 529 561 L 529 560 L 531 560 L 531 558 L 532 558 L 532 556 L 534 556 L 534 555 L 535 555 L 535 553 L 536 553 L 536 552 L 538 552 L 538 551 L 539 551 L 539 552 L 541 552 L 541 551 L 542 551 L 542 549 L 543 549 L 543 548 L 544 548 L 544 547 L 546 547 L 546 544 L 547 544 L 547 543 L 549 543 L 549 541 L 550 541 L 550 539 L 553 539 L 553 536 L 554 536 L 554 535 L 559 535 L 559 534 L 560 534 L 560 532 L 561 532 L 561 531 L 562 531 L 562 530 L 563 530 L 563 528 L 564 528 L 564 527 L 565 527 L 565 526 L 567 526 L 567 524 L 568 524 L 568 522 L 570 522 L 570 521 L 571 521 L 571 519 L 572 519 L 572 518 L 577 518 L 577 517 L 578 517 L 578 515 L 579 515 L 579 514 L 580 514 L 580 513 L 581 513 L 581 511 L 582 511 L 582 510 L 583 510 L 583 509 L 585 509 L 585 506 L 586 506 L 586 505 L 588 505 L 588 503 L 589 503 L 589 502 L 590 502 L 590 501 L 595 501 L 595 500 L 596 500 L 596 497 L 598 497 L 598 496 L 599 496 L 599 494 L 600 494 L 600 493 L 601 493 L 601 492 L 603 492 L 603 489 L 604 489 L 604 488 L 606 488 L 606 485 L 608 485 L 608 484 L 613 484 L 613 481 L 614 481 L 614 480 L 616 480 L 616 479 L 617 479 L 617 476 L 620 476 L 620 473 L 621 473 L 621 472 L 622 472 L 622 471 L 624 471 L 624 468 L 625 468 L 625 467 L 631 467 L 631 464 L 632 464 L 632 463 L 634 463 L 634 460 L 635 460 L 635 459 L 638 459 L 638 456 L 639 456 L 639 455 L 640 455 L 640 454 L 641 454 L 641 453 L 642 453 L 642 451 L 643 451 L 643 450 L 649 450 L 649 447 L 650 447 L 650 446 L 651 446 L 651 445 L 652 445 L 652 443 L 653 443 L 653 442 L 655 442 L 655 441 L 656 441 L 656 438 L 658 438 L 658 437 L 659 437 L 659 434 L 660 434 L 660 432 L 659 432 L 659 430 L 660 430 L 660 428 L 659 428 L 659 426 L 660 426 L 660 423 L 659 423 L 659 422 L 660 422 L 660 419 L 659 419 L 659 418 L 660 418 L 660 415 L 659 415 L 659 414 L 660 414 L 660 411 L 659 411 L 659 409 L 660 409 L 660 406 L 659 406 L 659 405 L 660 405 L 660 402 L 659 402 L 659 401 L 660 401 L 660 398 L 659 398 L 659 397 L 660 397 L 660 394 L 659 394 L 659 393 L 660 393 L 660 390 L 659 390 L 659 388 L 660 388 L 660 385 L 659 385 L 659 384 L 660 384 L 660 381 L 659 381 L 659 380 L 660 380 L 660 377 L 659 377 L 659 376 L 660 376 L 660 373 L 659 373 L 659 371 L 660 371 L 660 368 L 659 368 L 659 367 L 660 367 L 660 365 L 659 365 L 659 363 L 660 363 L 660 360 L 659 360 L 659 358 L 660 358 L 660 356 L 659 356 L 659 354 L 660 354 L 660 352 L 659 352 L 659 350 L 660 350 L 660 348 L 659 348 L 659 345 L 660 345 L 660 344 L 659 344 L 659 341 L 660 341 L 660 340 L 659 340 L 659 337 L 660 337 L 660 336 L 659 336 L 659 324 L 660 324 L 660 323 L 659 323 L 659 320 L 660 320 L 660 319 L 659 319 L 659 230 L 658 230 L 658 229 L 659 229 L 659 226 L 658 226 L 658 224 L 659 224 L 659 222 L 658 222 L 658 220 L 659 220 L 659 217 L 658 217 L 658 216 L 659 216 L 659 214 L 658 214 L 658 211 L 659 211 L 659 210 L 658 210 L 658 207 L 659 207 L 659 205 L 658 205 L 658 203 L 659 203 L 659 201 L 658 201 L 658 198 L 653 198 L 653 197 L 652 197 L 652 196 L 651 196 L 651 194 L 650 194 L 650 193 L 648 193 L 648 191 L 647 191 L 647 189 L 645 189 L 645 188 L 644 188 L 644 186 L 643 186 L 643 185 L 642 185 L 642 184 L 641 184 L 641 183 L 640 183 L 640 181 L 635 181 L 635 180 L 634 180 L 634 179 L 633 179 L 633 177 L 632 177 L 632 176 L 630 176 L 630 174 L 629 174 L 629 172 L 627 172 L 627 171 L 626 171 L 626 168 L 624 168 L 624 167 L 623 167 L 623 165 L 622 165 L 622 164 L 617 164 L 617 163 L 616 163 L 616 162 L 615 162 L 615 160 L 613 160 L 613 159 L 612 159 L 612 156 L 610 156 L 610 155 L 609 155 L 609 154 L 608 154 L 608 151 L 606 151 L 606 150 L 605 150 L 605 148 L 604 148 L 604 147 L 599 147 L 599 146 L 598 146 L 598 144 L 597 144 L 597 143 L 595 143 L 595 141 L 594 141 L 594 139 L 592 139 L 592 138 L 591 138 L 591 136 L 590 136 L 590 135 L 589 135 L 589 134 L 588 134 L 588 133 L 587 133 L 587 131 L 586 131 L 586 130 L 581 130 L 581 129 L 580 129 L 580 127 L 579 127 L 579 126 L 577 126 L 577 124 L 576 124 L 576 122 L 574 122 L 574 121 L 573 121 L 573 118 L 571 118 L 571 117 L 570 117 L 570 116 L 569 116 L 569 114 L 568 114 L 568 113 L 563 113 L 563 112 L 562 112 L 562 109 L 559 109 L 559 106 L 558 106 L 558 105 L 556 105 L 556 104 L 555 104 L 555 101 L 553 101 L 553 100 L 552 100 L 552 98 L 551 98 L 551 97 L 546 97 L 546 96 L 545 96 L 545 95 L 544 95 L 544 93 L 543 93 L 543 92 L 541 92 L 541 89 L 540 89 L 540 88 L 538 88 L 538 87 L 537 87 L 537 84 L 534 84 L 534 82 L 533 82 L 533 80 L 528 80 L 528 79 L 527 79 L 527 78 L 526 78 L 526 76 L 524 76 L 524 75 L 523 75 L 523 72 L 521 72 L 521 71 L 520 71 L 520 69 L 519 69 L 519 68 L 518 68 L 518 67 L 516 67 L 516 64 L 515 64 L 515 63 L 509 63 L 509 60 L 508 60 L 508 59 L 506 59 L 506 58 L 505 58 L 505 55 L 503 55 L 503 54 L 502 54 L 502 52 L 501 52 L 501 51 L 499 51 L 499 49 L 498 49 L 498 47 L 493 47 L 493 46 L 491 46 L 491 43 L 490 43 L 490 42 L 488 42 L 488 40 L 487 40 L 487 38 L 485 38 L 485 37 L 484 37 L 484 34 L 229 34 Z M 449 72 L 449 73 L 450 73 L 450 75 L 449 75 L 449 76 L 450 76 L 450 78 L 449 78 L 449 79 L 448 79 L 448 80 L 447 80 L 447 82 L 446 82 L 446 87 L 445 87 L 445 88 L 269 88 L 269 87 L 268 87 L 268 81 L 267 81 L 267 80 L 265 80 L 265 79 L 264 79 L 264 76 L 265 76 L 265 75 L 264 75 L 264 73 L 265 73 L 265 72 Z M 236 89 L 236 90 L 237 90 L 237 91 L 236 91 L 236 93 L 237 93 L 237 95 L 236 95 L 236 98 L 237 98 L 237 100 L 236 100 L 236 102 L 237 102 L 237 103 L 236 103 L 236 104 L 235 104 L 235 105 L 228 105 L 228 108 L 227 108 L 227 109 L 226 109 L 226 112 L 225 112 L 225 113 L 223 113 L 223 115 L 222 115 L 222 117 L 217 117 L 217 118 L 215 118 L 215 121 L 213 121 L 213 122 L 212 122 L 212 125 L 210 125 L 210 126 L 208 126 L 208 129 L 207 129 L 207 130 L 203 130 L 203 133 L 202 133 L 202 134 L 198 134 L 198 136 L 197 136 L 197 138 L 195 138 L 195 139 L 194 139 L 194 141 L 193 141 L 193 142 L 192 142 L 192 143 L 191 143 L 191 144 L 190 144 L 190 146 L 189 146 L 189 147 L 180 147 L 180 146 L 179 146 L 179 145 L 178 145 L 178 143 L 177 143 L 177 142 L 176 142 L 176 141 L 175 141 L 175 140 L 176 140 L 176 139 L 178 139 L 178 137 L 179 137 L 179 135 L 181 135 L 181 134 L 182 134 L 182 132 L 183 132 L 183 131 L 184 131 L 184 130 L 186 130 L 186 127 L 187 127 L 187 126 L 193 126 L 193 123 L 194 123 L 194 122 L 196 122 L 196 120 L 197 120 L 197 118 L 199 118 L 199 117 L 200 117 L 200 115 L 201 115 L 201 114 L 203 114 L 203 113 L 204 113 L 204 110 L 209 110 L 209 109 L 211 109 L 211 106 L 212 106 L 212 105 L 214 105 L 214 103 L 215 103 L 215 101 L 218 101 L 218 98 L 219 98 L 219 97 L 221 97 L 221 94 L 222 94 L 222 93 L 228 93 L 228 91 L 229 91 L 229 89 Z M 485 89 L 485 91 L 486 91 L 486 93 L 488 93 L 488 94 L 489 94 L 489 97 L 492 97 L 492 99 L 493 99 L 493 101 L 499 101 L 499 103 L 500 103 L 500 105 L 501 105 L 501 107 L 502 107 L 502 109 L 504 109 L 504 110 L 506 110 L 506 111 L 507 111 L 507 114 L 510 114 L 510 116 L 511 116 L 511 118 L 517 118 L 517 119 L 518 119 L 518 122 L 520 122 L 520 123 L 521 123 L 521 126 L 523 126 L 523 127 L 524 127 L 524 128 L 525 128 L 525 130 L 530 130 L 530 131 L 532 131 L 532 133 L 531 133 L 531 135 L 532 135 L 532 137 L 531 137 L 531 138 L 528 138 L 528 139 L 527 139 L 527 141 L 526 141 L 526 142 L 525 142 L 525 145 L 524 145 L 524 146 L 523 146 L 523 147 L 522 147 L 522 146 L 521 146 L 521 145 L 520 145 L 520 143 L 515 143 L 515 142 L 514 142 L 514 141 L 513 141 L 513 139 L 512 139 L 512 138 L 510 138 L 510 136 L 509 136 L 509 134 L 507 134 L 507 133 L 506 133 L 506 131 L 505 131 L 505 130 L 503 130 L 503 128 L 502 128 L 502 126 L 500 126 L 500 125 L 499 125 L 499 123 L 498 123 L 498 122 L 494 122 L 494 121 L 492 121 L 492 119 L 491 119 L 491 117 L 489 117 L 489 116 L 488 116 L 488 114 L 487 114 L 487 113 L 485 113 L 485 111 L 484 111 L 484 109 L 482 109 L 482 108 L 481 108 L 481 106 L 480 106 L 480 105 L 479 105 L 479 104 L 478 104 L 478 103 L 477 103 L 477 101 L 475 101 L 475 100 L 474 100 L 474 93 L 476 93 L 476 92 L 477 92 L 477 90 L 478 90 L 478 89 Z M 335 109 L 335 110 L 336 110 L 336 113 L 338 113 L 338 114 L 340 114 L 340 116 L 339 116 L 339 118 L 340 118 L 340 120 L 339 120 L 339 122 L 340 122 L 340 124 L 339 124 L 339 125 L 337 125 L 337 126 L 287 126 L 287 125 L 286 125 L 286 124 L 285 124 L 285 122 L 284 122 L 284 121 L 282 121 L 282 115 L 281 115 L 281 113 L 279 113 L 279 110 L 280 110 L 280 109 Z M 431 109 L 431 110 L 432 110 L 432 117 L 428 117 L 428 118 L 427 118 L 427 125 L 424 125 L 424 126 L 384 126 L 384 125 L 376 125 L 376 126 L 370 126 L 370 125 L 367 125 L 367 126 L 366 126 L 366 125 L 364 125 L 364 118 L 365 118 L 365 117 L 367 117 L 367 114 L 368 114 L 368 113 L 367 113 L 367 110 L 368 110 L 368 109 Z M 250 126 L 250 127 L 251 127 L 251 130 L 252 130 L 252 132 L 253 132 L 253 134 L 256 134 L 256 135 L 257 135 L 257 136 L 258 136 L 258 137 L 257 137 L 257 139 L 258 139 L 258 141 L 257 141 L 257 143 L 258 143 L 258 145 L 257 145 L 257 146 L 254 146 L 254 147 L 253 147 L 253 146 L 252 146 L 252 147 L 251 147 L 251 149 L 250 149 L 250 150 L 249 150 L 249 151 L 247 151 L 247 154 L 246 154 L 246 155 L 244 155 L 244 157 L 243 157 L 243 158 L 242 158 L 242 159 L 237 159 L 237 161 L 236 161 L 236 163 L 233 163 L 233 166 L 232 166 L 232 167 L 229 167 L 229 168 L 228 168 L 228 170 L 227 170 L 227 171 L 226 171 L 226 172 L 222 172 L 222 175 L 221 175 L 221 176 L 219 176 L 219 178 L 218 178 L 218 180 L 216 180 L 216 181 L 215 181 L 215 183 L 214 183 L 214 184 L 212 184 L 212 186 L 211 186 L 211 188 L 207 188 L 207 189 L 203 189 L 203 191 L 202 191 L 202 192 L 201 192 L 201 195 L 200 195 L 200 196 L 199 196 L 199 197 L 197 197 L 197 200 L 196 200 L 196 201 L 191 201 L 191 202 L 190 202 L 190 204 L 189 204 L 189 205 L 188 205 L 188 206 L 187 206 L 187 207 L 186 207 L 186 209 L 184 209 L 184 210 L 183 210 L 183 212 L 182 212 L 182 214 L 176 214 L 176 216 L 175 216 L 175 218 L 173 218 L 173 219 L 172 219 L 172 221 L 171 221 L 171 222 L 170 222 L 170 223 L 169 223 L 169 224 L 168 224 L 168 226 L 164 226 L 164 227 L 160 227 L 160 226 L 157 226 L 157 224 L 156 224 L 156 222 L 150 222 L 150 219 L 151 219 L 151 218 L 153 218 L 153 216 L 154 216 L 154 214 L 156 214 L 156 213 L 157 213 L 157 211 L 158 211 L 158 210 L 160 210 L 160 208 L 161 208 L 161 206 L 163 206 L 163 205 L 164 205 L 164 203 L 165 203 L 165 202 L 170 202 L 170 201 L 171 201 L 171 199 L 172 199 L 172 198 L 173 198 L 173 197 L 174 197 L 174 196 L 175 196 L 175 194 L 176 194 L 176 193 L 178 193 L 178 190 L 179 190 L 179 189 L 181 189 L 181 188 L 182 188 L 182 186 L 183 186 L 183 185 L 189 185 L 189 181 L 191 181 L 191 180 L 192 180 L 192 179 L 193 179 L 193 177 L 194 177 L 194 176 L 196 176 L 196 173 L 197 173 L 197 172 L 199 172 L 199 171 L 200 171 L 200 169 L 201 169 L 201 168 L 203 168 L 203 165 L 204 165 L 204 164 L 210 164 L 210 161 L 211 161 L 211 160 L 213 160 L 213 159 L 214 159 L 214 156 L 215 156 L 215 155 L 217 155 L 217 153 L 218 153 L 218 152 L 219 152 L 219 151 L 221 151 L 221 148 L 222 148 L 222 147 L 227 147 L 227 146 L 228 146 L 228 144 L 229 144 L 229 143 L 231 143 L 231 142 L 232 142 L 232 139 L 234 139 L 234 138 L 235 138 L 235 136 L 236 136 L 236 135 L 237 135 L 237 134 L 238 134 L 238 133 L 239 133 L 239 131 L 240 131 L 240 130 L 246 130 L 246 127 L 247 127 L 247 126 Z M 471 126 L 471 128 L 472 128 L 472 130 L 474 130 L 474 131 L 475 131 L 475 134 L 476 134 L 476 135 L 477 135 L 477 138 L 480 138 L 480 139 L 482 139 L 482 142 L 483 142 L 483 143 L 489 143 L 489 145 L 490 145 L 490 147 L 492 147 L 492 148 L 493 148 L 493 151 L 495 151 L 495 152 L 496 152 L 496 153 L 497 153 L 497 155 L 499 155 L 499 156 L 500 156 L 500 159 L 505 159 L 505 160 L 507 160 L 507 167 L 501 167 L 501 168 L 500 168 L 500 171 L 499 171 L 499 172 L 497 172 L 497 171 L 496 171 L 496 169 L 495 169 L 495 167 L 489 167 L 489 166 L 488 166 L 488 164 L 487 164 L 487 163 L 485 163 L 485 161 L 484 161 L 484 159 L 482 159 L 482 158 L 481 158 L 481 155 L 479 155 L 479 154 L 478 154 L 478 152 L 477 152 L 477 151 L 472 151 L 472 150 L 471 150 L 471 149 L 470 149 L 470 147 L 469 147 L 469 146 L 467 146 L 467 143 L 466 143 L 466 142 L 464 142 L 464 141 L 463 141 L 463 139 L 462 139 L 462 138 L 461 138 L 461 137 L 460 137 L 460 127 L 461 127 L 461 126 Z M 414 151 L 414 152 L 415 152 L 415 153 L 414 153 L 414 156 L 415 156 L 415 157 L 414 157 L 414 159 L 411 159 L 411 162 L 410 162 L 410 163 L 408 163 L 408 165 L 407 165 L 407 167 L 304 167 L 304 166 L 303 166 L 303 164 L 302 164 L 302 163 L 300 163 L 300 161 L 299 161 L 299 160 L 300 160 L 300 158 L 299 158 L 299 155 L 297 155 L 297 154 L 296 154 L 296 152 L 297 152 L 297 151 Z M 559 155 L 559 156 L 560 156 L 560 159 L 561 159 L 561 160 L 563 160 L 563 161 L 564 161 L 564 164 L 567 164 L 567 166 L 568 166 L 568 168 L 570 168 L 570 169 L 571 169 L 571 172 L 573 172 L 573 173 L 574 173 L 574 174 L 575 174 L 575 176 L 576 176 L 576 177 L 581 177 L 581 178 L 582 178 L 582 181 L 585 181 L 585 183 L 586 183 L 586 184 L 585 184 L 585 185 L 588 185 L 588 186 L 589 186 L 589 189 L 591 189 L 591 190 L 592 190 L 592 193 L 594 193 L 594 194 L 596 194 L 596 197 L 597 197 L 597 198 L 601 198 L 601 205 L 600 205 L 600 206 L 596 206 L 596 209 L 595 209 L 595 210 L 593 210 L 593 209 L 592 209 L 592 208 L 591 208 L 591 206 L 589 206 L 589 205 L 587 205 L 587 206 L 586 206 L 586 205 L 585 205 L 585 204 L 584 204 L 584 202 L 583 202 L 583 201 L 581 201 L 581 198 L 580 198 L 580 197 L 578 197 L 578 196 L 577 196 L 577 193 L 571 193 L 571 192 L 570 192 L 570 189 L 568 189 L 568 188 L 567 188 L 567 187 L 566 187 L 566 184 L 563 184 L 563 181 L 562 181 L 562 180 L 557 180 L 557 179 L 556 179 L 556 177 L 555 177 L 555 176 L 553 176 L 553 175 L 552 175 L 552 172 L 550 172 L 550 171 L 549 171 L 549 169 L 548 169 L 548 168 L 547 168 L 547 167 L 546 167 L 546 166 L 545 166 L 545 165 L 546 165 L 546 164 L 548 164 L 548 162 L 549 162 L 549 160 L 551 160 L 551 159 L 552 159 L 552 157 L 553 157 L 553 156 L 554 156 L 554 155 Z M 161 160 L 161 161 L 162 161 L 162 164 L 168 164 L 168 165 L 169 165 L 169 167 L 168 167 L 168 169 L 169 169 L 169 171 L 168 171 L 168 172 L 162 172 L 162 175 L 161 175 L 161 176 L 159 176 L 159 177 L 158 177 L 158 180 L 154 180 L 154 181 L 153 181 L 153 183 L 152 183 L 152 184 L 148 184 L 148 187 L 147 187 L 147 188 L 146 188 L 146 189 L 144 189 L 144 192 L 143 192 L 143 193 L 141 193 L 141 195 L 140 195 L 140 197 L 134 197 L 134 198 L 133 198 L 133 201 L 129 201 L 129 202 L 128 202 L 128 204 L 127 204 L 127 206 L 126 206 L 126 209 L 125 209 L 125 210 L 120 210 L 120 209 L 118 209 L 118 206 L 109 206 L 109 205 L 108 205 L 108 202 L 111 202 L 111 199 L 112 199 L 112 198 L 114 198 L 114 196 L 115 196 L 115 194 L 117 194 L 117 193 L 118 193 L 118 191 L 119 191 L 119 190 L 120 190 L 120 189 L 125 189 L 125 186 L 127 186 L 127 185 L 129 185 L 129 181 L 132 181 L 132 178 L 133 178 L 133 177 L 138 177 L 138 176 L 140 176 L 140 173 L 142 173 L 142 172 L 143 172 L 143 169 L 145 169 L 145 168 L 146 168 L 146 166 L 147 166 L 147 164 L 153 164 L 153 163 L 154 163 L 154 160 Z M 268 164 L 268 167 L 269 167 L 269 168 L 271 168 L 271 169 L 272 169 L 272 171 L 271 171 L 271 172 L 272 172 L 272 176 L 274 176 L 274 177 L 275 177 L 275 178 L 276 178 L 276 179 L 275 179 L 275 183 L 274 183 L 274 184 L 269 184 L 269 186 L 268 186 L 268 188 L 266 188 L 266 189 L 265 189 L 265 191 L 264 191 L 264 192 L 262 192 L 262 193 L 261 193 L 261 196 L 260 196 L 260 197 L 253 197 L 253 198 L 252 198 L 252 200 L 251 200 L 251 203 L 250 203 L 250 205 L 248 205 L 248 206 L 247 206 L 247 208 L 246 208 L 246 209 L 244 209 L 244 211 L 243 211 L 243 213 L 242 213 L 242 214 L 237 214 L 237 215 L 236 215 L 236 217 L 235 217 L 235 218 L 233 218 L 233 220 L 232 220 L 232 222 L 228 222 L 228 224 L 227 224 L 227 226 L 226 226 L 226 228 L 225 228 L 225 230 L 223 230 L 223 231 L 219 231 L 219 232 L 218 232 L 218 234 L 217 234 L 217 235 L 215 235 L 215 237 L 214 237 L 214 238 L 213 238 L 213 239 L 211 239 L 211 242 L 210 242 L 210 243 L 200 243 L 200 242 L 199 242 L 199 240 L 198 240 L 198 239 L 193 239 L 193 238 L 192 238 L 192 236 L 193 236 L 193 235 L 195 235 L 195 233 L 196 233 L 196 231 L 198 231 L 198 230 L 199 230 L 199 228 L 200 228 L 200 227 L 202 227 L 202 226 L 203 226 L 203 223 L 205 223 L 205 222 L 206 222 L 206 220 L 207 220 L 207 219 L 208 219 L 208 218 L 210 218 L 210 215 L 211 215 L 211 214 L 216 214 L 216 213 L 217 213 L 217 211 L 218 211 L 218 210 L 220 210 L 220 208 L 221 208 L 221 206 L 223 206 L 223 205 L 224 205 L 224 203 L 225 203 L 225 202 L 227 202 L 227 200 L 228 200 L 228 198 L 229 198 L 229 197 L 231 197 L 231 195 L 232 195 L 232 193 L 235 193 L 235 190 L 236 190 L 236 189 L 241 189 L 241 188 L 242 188 L 242 186 L 243 186 L 243 185 L 245 185 L 245 184 L 246 184 L 246 181 L 247 181 L 247 180 L 249 180 L 249 178 L 250 178 L 250 176 L 253 176 L 253 173 L 254 173 L 254 172 L 256 172 L 256 170 L 257 170 L 257 168 L 263 168 L 263 167 L 264 167 L 264 164 Z M 450 168 L 450 172 L 451 172 L 451 173 L 452 173 L 452 176 L 460 176 L 460 177 L 461 177 L 461 180 L 463 180 L 463 181 L 464 181 L 464 182 L 465 182 L 465 185 L 468 185 L 468 188 L 469 188 L 469 189 L 475 189 L 475 196 L 474 196 L 474 197 L 472 197 L 472 200 L 471 200 L 471 201 L 469 201 L 469 202 L 468 202 L 468 205 L 461 205 L 461 204 L 460 204 L 460 202 L 459 202 L 459 201 L 457 201 L 457 199 L 456 199 L 456 197 L 454 197 L 454 196 L 453 196 L 453 193 L 451 193 L 451 192 L 450 192 L 450 191 L 449 191 L 449 189 L 448 189 L 448 188 L 446 188 L 446 186 L 445 186 L 445 184 L 443 184 L 443 183 L 442 183 L 442 180 L 439 180 L 439 172 L 441 172 L 441 171 L 442 171 L 442 169 L 443 169 L 443 168 Z M 525 180 L 525 181 L 526 181 L 526 182 L 527 182 L 527 185 L 532 185 L 532 188 L 533 188 L 533 189 L 535 189 L 535 190 L 536 190 L 536 193 L 538 193 L 538 194 L 539 194 L 539 195 L 540 195 L 540 197 L 545 197 L 545 198 L 546 198 L 546 199 L 547 199 L 547 200 L 546 200 L 546 201 L 547 201 L 547 202 L 550 202 L 550 206 L 551 206 L 551 207 L 552 207 L 552 210 L 556 210 L 556 211 L 557 211 L 557 214 L 563 214 L 563 215 L 564 215 L 564 222 L 553 222 L 553 223 L 552 223 L 552 226 L 550 226 L 550 225 L 549 225 L 549 223 L 548 223 L 548 222 L 543 222 L 543 221 L 542 221 L 542 219 L 541 219 L 541 218 L 539 218 L 539 216 L 538 216 L 538 214 L 536 214 L 536 213 L 535 213 L 535 210 L 533 210 L 533 209 L 532 209 L 532 208 L 531 208 L 531 206 L 530 206 L 530 205 L 528 205 L 528 203 L 527 203 L 527 201 L 525 201 L 525 200 L 524 200 L 524 198 L 523 198 L 523 197 L 521 197 L 521 195 L 520 195 L 520 193 L 519 193 L 519 192 L 517 192 L 517 189 L 515 189 L 515 188 L 514 188 L 514 185 L 516 185 L 516 184 L 517 184 L 517 181 L 519 181 L 519 180 Z M 371 193 L 371 194 L 372 194 L 372 196 L 370 196 L 370 197 L 365 197 L 365 200 L 363 200 L 363 201 L 353 201 L 353 202 L 352 202 L 352 204 L 351 204 L 351 205 L 348 205 L 348 206 L 347 206 L 347 208 L 346 208 L 346 209 L 341 209 L 341 210 L 340 210 L 340 212 L 339 212 L 339 213 L 338 213 L 338 214 L 333 214 L 333 216 L 332 216 L 332 217 L 331 217 L 331 218 L 329 218 L 329 221 L 328 221 L 328 222 L 326 222 L 326 224 L 325 224 L 325 225 L 324 225 L 324 226 L 322 226 L 322 229 L 321 229 L 321 230 L 319 230 L 319 232 L 318 232 L 318 238 L 317 238 L 317 239 L 315 239 L 315 242 L 314 242 L 314 245 L 315 245 L 315 247 L 316 247 L 316 248 L 318 248 L 318 260 L 321 260 L 321 261 L 322 261 L 322 263 L 321 263 L 321 265 L 322 265 L 322 268 L 323 268 L 323 269 L 325 269 L 325 272 L 326 272 L 326 273 L 328 273 L 328 274 L 329 274 L 329 275 L 328 275 L 328 277 L 327 277 L 327 281 L 331 281 L 331 282 L 332 282 L 332 287 L 333 287 L 333 289 L 334 289 L 334 290 L 336 290 L 336 302 L 338 302 L 338 303 L 339 303 L 339 304 L 340 304 L 340 305 L 339 305 L 339 307 L 340 307 L 340 310 L 341 310 L 341 311 L 343 311 L 343 313 L 344 313 L 344 315 L 346 315 L 346 316 L 347 316 L 347 318 L 346 318 L 346 320 L 347 320 L 347 323 L 348 323 L 348 324 L 350 324 L 350 330 L 351 330 L 351 333 L 352 333 L 352 340 L 355 340 L 355 341 L 357 341 L 357 346 L 358 346 L 358 347 L 357 347 L 357 354 L 358 354 L 358 357 L 360 357 L 360 358 L 361 358 L 361 369 L 360 369 L 360 370 L 358 370 L 358 373 L 357 373 L 357 382 L 353 382 L 353 383 L 352 383 L 352 386 L 351 386 L 351 389 L 350 389 L 350 390 L 349 390 L 349 391 L 333 391 L 333 393 L 332 393 L 332 394 L 331 394 L 331 395 L 314 395 L 314 393 L 313 393 L 313 391 L 297 391 L 297 390 L 296 390 L 296 389 L 295 389 L 295 387 L 287 387 L 287 386 L 285 386 L 285 384 L 284 384 L 284 382 L 274 382 L 274 379 L 273 379 L 273 378 L 268 378 L 268 377 L 267 377 L 267 376 L 266 376 L 266 374 L 261 374 L 261 373 L 260 373 L 260 372 L 259 372 L 259 370 L 250 370 L 250 369 L 249 369 L 249 366 L 248 366 L 248 365 L 246 365 L 246 366 L 245 366 L 245 365 L 242 365 L 242 363 L 241 363 L 241 361 L 235 361 L 235 359 L 234 359 L 234 357 L 228 357 L 228 355 L 227 355 L 227 353 L 225 353 L 225 352 L 224 352 L 224 350 L 223 350 L 223 349 L 222 349 L 222 348 L 221 348 L 221 347 L 220 347 L 220 345 L 221 345 L 221 343 L 220 343 L 220 342 L 221 342 L 221 339 L 220 339 L 220 337 L 221 337 L 221 335 L 220 335 L 220 333 L 221 333 L 221 331 L 220 331 L 220 328 L 219 328 L 219 327 L 217 327 L 217 316 L 218 316 L 218 315 L 220 315 L 220 312 L 221 312 L 221 309 L 220 309 L 220 308 L 221 308 L 221 305 L 220 305 L 220 304 L 221 304 L 221 299 L 222 299 L 222 298 L 224 298 L 224 286 L 225 286 L 225 285 L 224 285 L 224 282 L 225 282 L 225 281 L 227 281 L 227 279 L 228 279 L 228 274 L 229 274 L 229 273 L 230 273 L 230 272 L 231 272 L 231 269 L 232 269 L 232 268 L 231 268 L 231 266 L 232 266 L 232 265 L 233 265 L 233 264 L 234 264 L 234 263 L 235 263 L 235 261 L 236 261 L 236 260 L 238 260 L 238 257 L 239 257 L 239 255 L 238 255 L 238 253 L 239 253 L 239 252 L 241 252 L 241 251 L 242 251 L 242 248 L 244 248 L 244 247 L 245 247 L 245 245 L 246 245 L 246 244 L 247 244 L 247 243 L 249 243 L 249 240 L 250 240 L 250 239 L 252 239 L 252 238 L 253 238 L 253 235 L 255 235 L 255 234 L 256 234 L 256 232 L 257 232 L 257 231 L 261 231 L 261 230 L 263 230 L 263 228 L 264 228 L 264 227 L 266 227 L 266 226 L 267 226 L 267 223 L 268 223 L 268 222 L 270 222 L 270 220 L 271 220 L 271 219 L 272 219 L 272 218 L 277 218 L 277 216 L 278 216 L 278 214 L 284 214 L 284 213 L 285 213 L 285 211 L 286 211 L 286 210 L 291 210 L 291 209 L 292 209 L 292 206 L 294 206 L 294 205 L 302 205 L 302 204 L 303 204 L 303 202 L 304 202 L 304 201 L 313 201 L 313 199 L 314 199 L 314 197 L 338 197 L 338 195 L 339 195 L 339 193 Z M 388 205 L 388 206 L 389 206 L 389 207 L 390 207 L 390 209 L 391 209 L 391 210 L 393 210 L 393 212 L 394 212 L 394 214 L 396 214 L 396 215 L 397 215 L 397 217 L 396 217 L 396 218 L 397 218 L 397 222 L 399 222 L 399 223 L 400 223 L 400 225 L 401 225 L 401 227 L 402 227 L 402 229 L 403 229 L 403 230 L 404 230 L 404 231 L 405 231 L 405 230 L 407 230 L 407 231 L 408 231 L 408 230 L 409 230 L 409 231 L 414 231 L 414 232 L 415 232 L 415 234 L 416 234 L 416 235 L 428 235 L 428 236 L 429 236 L 429 238 L 430 238 L 430 239 L 432 239 L 432 241 L 433 241 L 433 243 L 434 243 L 434 244 L 436 244 L 436 246 L 437 246 L 437 247 L 438 247 L 438 248 L 441 248 L 441 247 L 442 247 L 442 244 L 443 244 L 443 242 L 442 242 L 442 239 L 440 239 L 440 238 L 439 238 L 439 232 L 438 232 L 438 231 L 437 231 L 437 230 L 436 230 L 436 229 L 435 229 L 435 227 L 434 227 L 434 226 L 432 226 L 432 214 L 435 214 L 435 215 L 436 215 L 436 217 L 437 217 L 437 218 L 442 218 L 442 219 L 443 219 L 443 221 L 444 221 L 444 222 L 449 222 L 449 223 L 450 223 L 450 224 L 451 224 L 451 227 L 452 227 L 452 229 L 453 229 L 453 230 L 454 230 L 454 231 L 457 231 L 457 232 L 458 232 L 458 235 L 461 235 L 461 237 L 462 237 L 462 239 L 464 239 L 464 240 L 465 240 L 465 243 L 466 243 L 466 244 L 468 244 L 468 245 L 469 245 L 469 247 L 470 247 L 470 248 L 472 248 L 472 251 L 473 251 L 473 252 L 475 252 L 475 253 L 476 253 L 476 254 L 475 254 L 475 257 L 476 257 L 476 261 L 477 261 L 477 262 L 478 262 L 478 264 L 479 264 L 479 265 L 482 265 L 482 266 L 483 266 L 483 268 L 482 268 L 482 269 L 483 269 L 483 273 L 486 273 L 486 279 L 487 279 L 487 281 L 488 281 L 488 282 L 490 282 L 490 285 L 489 285 L 489 286 L 490 286 L 490 289 L 491 289 L 491 290 L 493 290 L 493 295 L 494 295 L 494 296 L 493 296 L 493 304 L 494 304 L 494 306 L 495 306 L 495 307 L 497 307 L 497 323 L 495 323 L 495 324 L 494 324 L 494 327 L 493 327 L 493 328 L 494 328 L 494 331 L 493 331 L 493 333 L 494 333 L 494 335 L 493 335 L 493 337 L 494 337 L 494 339 L 493 339 L 493 341 L 494 341 L 494 343 L 493 343 L 493 346 L 494 346 L 494 348 L 493 348 L 493 350 L 494 350 L 494 351 L 493 351 L 493 352 L 492 352 L 492 353 L 491 353 L 491 355 L 490 355 L 490 365 L 488 365 L 488 366 L 487 366 L 487 368 L 486 368 L 486 373 L 485 373 L 485 374 L 483 374 L 483 381 L 482 381 L 482 382 L 478 382 L 478 385 L 477 385 L 477 386 L 476 386 L 476 390 L 474 390 L 474 391 L 473 391 L 473 393 L 472 393 L 472 394 L 471 394 L 471 395 L 469 395 L 469 398 L 468 398 L 468 399 L 466 399 L 466 400 L 465 400 L 465 403 L 463 403 L 463 404 L 462 404 L 462 406 L 461 406 L 461 407 L 460 407 L 460 408 L 458 408 L 458 411 L 457 411 L 457 412 L 453 412 L 453 415 L 452 415 L 452 416 L 451 416 L 451 419 L 450 419 L 450 420 L 449 420 L 449 421 L 444 421 L 444 423 L 443 423 L 443 424 L 442 424 L 442 425 L 437 425 L 437 427 L 436 427 L 436 428 L 435 428 L 435 429 L 433 429 L 433 432 L 432 432 L 432 433 L 423 433 L 423 434 L 422 434 L 422 437 L 418 437 L 418 438 L 411 438 L 411 437 L 409 437 L 409 438 L 401 438 L 401 437 L 396 437 L 396 434 L 397 434 L 397 433 L 403 433 L 403 426 L 404 426 L 404 425 L 406 425 L 406 423 L 407 423 L 407 402 L 406 402 L 406 399 L 404 399 L 404 398 L 403 398 L 403 383 L 404 383 L 404 382 L 403 382 L 403 370 L 401 370 L 401 369 L 400 369 L 400 364 L 399 364 L 399 361 L 397 361 L 397 360 L 396 360 L 396 354 L 395 354 L 395 353 L 394 353 L 394 352 L 393 352 L 393 351 L 392 351 L 392 350 L 393 350 L 393 348 L 392 348 L 392 345 L 391 345 L 391 344 L 389 344 L 389 334 L 388 334 L 388 332 L 387 332 L 387 331 L 385 331 L 385 324 L 384 324 L 384 323 L 382 323 L 382 321 L 381 321 L 381 319 L 379 319 L 379 318 L 378 318 L 378 316 L 377 316 L 377 315 L 376 315 L 376 314 L 375 314 L 375 313 L 374 313 L 374 311 L 375 311 L 375 309 L 374 309 L 374 307 L 373 307 L 373 306 L 371 306 L 371 303 L 370 303 L 370 302 L 368 302 L 368 301 L 367 301 L 367 299 L 366 299 L 366 298 L 365 298 L 365 297 L 364 297 L 364 292 L 363 292 L 363 290 L 362 290 L 362 289 L 361 289 L 361 288 L 360 288 L 360 286 L 359 286 L 359 285 L 357 285 L 357 284 L 356 284 L 356 281 L 354 281 L 354 280 L 353 280 L 353 278 L 352 278 L 352 277 L 350 277 L 350 275 L 349 275 L 349 273 L 348 273 L 348 272 L 346 272 L 346 266 L 345 266 L 345 264 L 343 264 L 343 263 L 342 263 L 342 260 L 340 260 L 340 259 L 339 259 L 339 258 L 338 258 L 338 256 L 336 256 L 336 255 L 335 255 L 335 244 L 334 244 L 334 243 L 332 243 L 332 239 L 334 239 L 334 238 L 335 238 L 335 231 L 337 231 L 337 230 L 338 230 L 338 228 L 339 228 L 339 227 L 340 227 L 340 226 L 342 226 L 342 223 L 344 223 L 344 222 L 349 222 L 349 219 L 350 219 L 350 218 L 356 218 L 356 215 L 357 215 L 357 214 L 364 214 L 364 213 L 367 213 L 367 211 L 368 211 L 368 210 L 370 210 L 370 209 L 372 209 L 372 210 L 376 210 L 376 209 L 378 209 L 378 206 L 379 206 L 379 205 Z M 496 206 L 496 207 L 497 207 L 497 209 L 498 209 L 498 210 L 500 210 L 500 212 L 501 212 L 501 215 L 502 215 L 502 217 L 503 217 L 503 218 L 506 218 L 506 219 L 507 219 L 507 220 L 508 220 L 508 222 L 509 222 L 509 223 L 511 223 L 511 225 L 512 225 L 512 227 L 514 227 L 514 228 L 515 228 L 515 230 L 516 230 L 516 231 L 521 231 L 521 232 L 522 232 L 522 234 L 521 234 L 521 236 L 522 236 L 522 238 L 520 238 L 520 239 L 512 239 L 512 240 L 511 240 L 511 242 L 510 242 L 510 243 L 507 243 L 507 241 L 506 241 L 506 239 L 501 239 L 501 238 L 500 238 L 500 237 L 499 237 L 499 235 L 497 235 L 497 234 L 496 234 L 496 232 L 495 232 L 495 231 L 490 231 L 490 230 L 489 230 L 489 228 L 488 228 L 488 226 L 486 226 L 486 225 L 485 225 L 485 223 L 484 223 L 484 222 L 482 222 L 482 214 L 484 214 L 484 213 L 485 213 L 485 211 L 486 211 L 486 210 L 487 210 L 487 209 L 488 209 L 488 208 L 489 208 L 489 206 Z M 615 235 L 615 236 L 617 236 L 617 241 L 618 241 L 618 242 L 617 242 L 617 253 L 618 253 L 618 255 L 617 255 L 617 258 L 618 258 L 618 259 L 617 259 L 617 262 L 618 262 L 618 263 L 617 263 L 617 266 L 618 266 L 618 268 L 617 268 L 617 270 L 618 270 L 618 272 L 617 272 L 617 274 L 618 274 L 618 276 L 617 276 L 617 278 L 618 278 L 618 280 L 617 280 L 617 282 L 618 282 L 618 285 L 617 285 L 617 287 L 618 287 L 618 289 L 617 289 L 617 291 L 618 291 L 618 293 L 617 293 L 617 295 L 618 295 L 618 298 L 617 298 L 617 299 L 618 299 L 618 302 L 617 302 L 617 303 L 618 303 L 618 306 L 617 306 L 617 307 L 618 307 L 618 310 L 617 310 L 617 312 L 618 312 L 618 319 L 617 319 L 617 320 L 618 320 L 618 323 L 617 323 L 617 324 L 618 324 L 618 399 L 617 399 L 617 400 L 618 400 L 618 403 L 614 403 L 614 401 L 613 401 L 613 399 L 607 399 L 607 398 L 606 398 L 606 395 L 604 395 L 604 394 L 603 394 L 603 280 L 602 280 L 602 279 L 603 279 L 603 276 L 602 276 L 602 275 L 603 275 L 603 272 L 602 272 L 602 270 L 603 270 L 603 267 L 602 267 L 602 266 L 603 266 L 603 263 L 602 263 L 602 262 L 603 262 L 603 259 L 602 259 L 602 257 L 603 257 L 603 255 L 602 255 L 602 253 L 603 253 L 603 251 L 602 251 L 602 248 L 603 248 L 603 247 L 602 247 L 602 244 L 603 244 L 603 243 L 602 243 L 602 241 L 603 241 L 603 240 L 605 240 L 605 239 L 609 239 L 609 237 L 610 237 L 610 236 L 611 236 L 611 235 Z M 97 236 L 97 237 L 98 237 L 98 239 L 99 239 L 99 240 L 102 240 L 102 241 L 103 241 L 103 244 L 108 244 L 108 285 L 107 285 L 107 286 L 108 286 L 108 289 L 107 289 L 107 290 L 108 290 L 108 294 L 107 294 L 107 295 L 108 295 L 108 298 L 107 298 L 107 299 L 108 299 L 108 302 L 107 302 L 107 303 L 108 303 L 108 306 L 107 306 L 107 307 L 108 307 L 108 310 L 107 310 L 107 312 L 108 312 L 108 315 L 107 315 L 107 316 L 108 316 L 108 319 L 107 319 L 107 320 L 108 320 L 108 323 L 107 323 L 107 324 L 108 324 L 108 327 L 107 327 L 107 329 L 108 329 L 108 331 L 107 331 L 107 333 L 108 333 L 108 335 L 107 335 L 107 337 L 108 337 L 108 340 L 107 340 L 107 342 L 108 342 L 108 344 L 107 344 L 107 346 L 108 346 L 108 348 L 107 348 L 107 350 L 108 350 L 108 352 L 107 352 L 107 354 L 108 354 L 108 356 L 107 356 L 107 359 L 108 359 L 108 360 L 107 360 L 107 363 L 108 363 L 108 364 L 107 364 L 107 367 L 108 367 L 108 369 L 107 369 L 107 371 L 108 371 L 108 373 L 107 373 L 107 375 L 108 375 L 108 377 L 107 377 L 107 380 L 108 380 L 108 381 L 107 381 L 107 384 L 108 384 L 108 385 L 107 385 L 107 388 L 108 388 L 108 390 L 107 390 L 107 393 L 108 393 L 108 394 L 107 394 L 107 396 L 108 396 L 108 398 L 107 398 L 107 399 L 101 399 L 101 402 L 100 402 L 100 403 L 98 403 L 98 404 L 94 404 L 94 403 L 93 403 L 93 394 L 92 394 L 92 393 L 93 393 L 93 390 L 92 390 L 92 388 L 93 388 L 93 385 L 92 385 L 92 384 L 93 384 L 93 381 L 92 381 L 92 380 L 93 380 L 93 377 L 92 377 L 92 376 L 93 376 L 93 368 L 92 368 L 92 367 L 93 367 L 93 364 L 92 364 L 92 363 L 93 363 L 93 356 L 92 356 L 92 355 L 93 355 L 93 237 L 94 237 L 94 236 Z M 576 248 L 576 249 L 577 249 L 577 264 L 576 264 L 576 265 L 577 265 L 577 388 L 578 388 L 578 389 L 577 389 L 577 390 L 575 390 L 575 389 L 574 389 L 574 387 L 569 387 L 569 386 L 568 386 L 568 384 L 567 384 L 567 382 L 564 382 L 564 257 L 565 257 L 565 256 L 567 256 L 567 253 L 568 253 L 568 252 L 573 252 L 573 251 L 574 251 L 574 249 L 575 249 L 575 248 Z M 139 252 L 139 253 L 140 253 L 140 256 L 146 256 L 146 257 L 147 257 L 147 260 L 148 260 L 148 261 L 150 261 L 150 266 L 151 266 L 151 267 L 150 267 L 150 306 L 147 306 L 147 307 L 137 307 L 137 306 L 135 306 L 135 290 L 136 290 L 136 289 L 135 289 L 135 286 L 136 286 L 136 285 L 135 285 L 135 282 L 136 282 L 136 281 L 135 281 L 135 278 L 136 278 L 136 276 L 135 276 L 135 274 L 136 274 L 136 272 L 135 272 L 135 270 L 136 270 L 136 268 L 135 268 L 135 265 L 136 265 L 136 264 L 135 264 L 135 261 L 136 261 L 136 259 L 135 259 L 135 257 L 136 257 L 136 252 Z M 536 265 L 536 306 L 532 306 L 532 307 L 531 307 L 531 306 L 530 306 L 530 307 L 528 307 L 528 309 L 527 309 L 527 310 L 526 310 L 526 311 L 522 311 L 522 310 L 521 310 L 521 274 L 522 274 L 522 273 L 524 273 L 524 271 L 525 271 L 525 269 L 531 269 L 531 267 L 532 267 L 532 265 Z M 182 269 L 182 271 L 183 271 L 183 273 L 189 273 L 189 275 L 190 275 L 190 276 L 189 276 L 189 278 L 190 278 L 190 280 L 189 280 L 189 283 L 190 283 L 190 284 L 189 284 L 189 287 L 190 287 L 190 288 L 189 288 L 189 310 L 188 310 L 188 311 L 175 311 L 175 310 L 174 310 L 174 286 L 175 286 L 175 285 L 174 285 L 174 282 L 175 282 L 175 281 L 174 281 L 174 273 L 175 273 L 175 272 L 174 272 L 174 270 L 175 270 L 175 269 Z M 525 328 L 525 329 L 526 329 L 526 332 L 536 332 L 536 374 L 529 374 L 529 373 L 528 373 L 528 370 L 523 370 L 523 369 L 522 369 L 522 368 L 521 368 L 521 366 L 522 366 L 522 365 L 521 365 L 521 358 L 522 358 L 522 357 L 521 357 L 521 329 L 522 329 L 522 328 Z M 149 332 L 149 333 L 150 333 L 150 382 L 144 382 L 144 383 L 143 383 L 143 386 L 141 386 L 141 387 L 136 387 L 136 386 L 135 386 L 135 333 L 136 333 L 136 332 Z M 189 332 L 189 365 L 187 365 L 187 366 L 186 366 L 186 368 L 185 368 L 185 369 L 184 369 L 184 370 L 177 370 L 177 373 L 174 373 L 174 333 L 175 333 L 175 332 Z M 199 395 L 199 396 L 200 396 L 200 399 L 201 399 L 201 400 L 207 400 L 207 403 L 208 403 L 208 404 L 210 404 L 210 405 L 211 405 L 211 408 L 213 408 L 213 409 L 214 409 L 214 412 L 220 412 L 220 413 L 221 413 L 221 414 L 222 414 L 222 417 L 225 417 L 225 421 L 226 421 L 226 422 L 227 422 L 227 425 L 235 425 L 235 426 L 236 426 L 236 429 L 238 429 L 238 430 L 239 430 L 239 432 L 240 432 L 240 433 L 241 433 L 241 434 L 242 434 L 242 435 L 243 435 L 243 437 L 244 437 L 244 438 L 249 438 L 249 439 L 250 439 L 250 442 L 251 442 L 251 443 L 252 443 L 252 446 L 256 446 L 256 447 L 257 447 L 257 449 L 258 449 L 258 450 L 263 450 L 263 451 L 264 451 L 264 452 L 265 452 L 265 454 L 266 454 L 266 455 L 267 455 L 267 456 L 268 456 L 268 459 L 271 459 L 271 461 L 272 461 L 272 463 L 274 463 L 274 464 L 275 464 L 275 466 L 274 466 L 274 467 L 272 467 L 272 470 L 271 470 L 271 475 L 268 475 L 268 476 L 264 476 L 264 475 L 263 475 L 263 476 L 262 476 L 262 475 L 260 475 L 260 473 L 259 473 L 259 472 L 258 472 L 258 471 L 257 471 L 257 470 L 256 470 L 256 468 L 255 468 L 255 467 L 253 467 L 253 465 L 252 465 L 252 463 L 247 463 L 247 462 L 246 462 L 246 461 L 245 461 L 245 459 L 244 459 L 244 458 L 242 458 L 242 456 L 241 456 L 241 455 L 240 455 L 240 454 L 239 454 L 239 453 L 238 453 L 238 451 L 237 451 L 237 450 L 232 450 L 232 449 L 231 449 L 231 447 L 230 447 L 230 446 L 228 446 L 228 444 L 227 444 L 227 442 L 225 442 L 225 441 L 224 441 L 224 439 L 223 439 L 223 438 L 222 438 L 222 437 L 221 437 L 221 436 L 220 436 L 220 434 L 219 434 L 219 433 L 214 433 L 214 432 L 213 432 L 213 430 L 212 430 L 212 429 L 211 429 L 211 428 L 210 428 L 210 427 L 209 427 L 209 425 L 207 425 L 207 424 L 206 424 L 206 422 L 205 422 L 205 421 L 204 421 L 204 420 L 203 420 L 203 421 L 201 421 L 201 420 L 199 420 L 199 417 L 198 417 L 198 416 L 196 416 L 196 415 L 195 415 L 195 412 L 193 412 L 193 411 L 192 411 L 192 410 L 191 410 L 191 408 L 186 408 L 186 407 L 185 407 L 185 400 L 195 400 L 195 397 L 196 397 L 196 396 L 197 396 L 197 395 Z M 517 395 L 517 396 L 518 396 L 518 397 L 519 397 L 519 400 L 525 400 L 525 401 L 526 401 L 526 402 L 525 402 L 525 403 L 524 403 L 524 404 L 523 404 L 523 405 L 522 405 L 522 407 L 521 407 L 521 408 L 519 408 L 519 411 L 518 411 L 518 412 L 516 412 L 516 413 L 515 413 L 515 415 L 514 415 L 514 416 L 512 416 L 512 419 L 511 419 L 511 420 L 508 420 L 508 421 L 503 421 L 503 423 L 502 423 L 502 424 L 501 424 L 501 428 L 500 428 L 500 429 L 498 429 L 498 431 L 497 431 L 497 432 L 496 432 L 496 433 L 494 433 L 494 436 L 493 436 L 493 437 L 492 437 L 492 438 L 487 438 L 487 440 L 486 440 L 486 441 L 485 441 L 485 442 L 484 442 L 484 443 L 483 443 L 483 445 L 482 445 L 482 446 L 478 446 L 478 449 L 477 449 L 477 450 L 476 450 L 476 453 L 475 453 L 475 454 L 474 454 L 474 455 L 473 455 L 473 456 L 472 456 L 472 458 L 467 458 L 467 459 L 466 459 L 466 460 L 465 460 L 465 462 L 464 462 L 464 463 L 462 463 L 462 465 L 461 465 L 461 466 L 460 466 L 460 467 L 459 467 L 459 468 L 458 468 L 458 470 L 457 470 L 457 471 L 454 471 L 454 472 L 453 472 L 453 474 L 452 474 L 452 475 L 448 475 L 448 477 L 447 477 L 447 479 L 443 479 L 443 478 L 442 478 L 442 476 L 441 476 L 441 475 L 439 475 L 439 468 L 438 468 L 438 467 L 436 467 L 436 465 L 435 465 L 435 464 L 436 464 L 436 459 L 442 459 L 442 456 L 443 456 L 443 455 L 444 455 L 444 454 L 446 454 L 446 451 L 448 451 L 448 450 L 449 450 L 449 449 L 450 449 L 450 447 L 451 447 L 451 446 L 456 446 L 456 445 L 457 445 L 457 443 L 458 443 L 458 442 L 460 442 L 460 439 L 461 439 L 461 438 L 463 438 L 463 437 L 464 437 L 464 434 L 466 434 L 466 433 L 471 433 L 471 430 L 472 430 L 472 429 L 474 429 L 474 428 L 475 428 L 475 426 L 476 426 L 476 425 L 478 425 L 478 422 L 479 422 L 479 421 L 484 421 L 484 420 L 485 420 L 485 418 L 486 418 L 486 417 L 488 417 L 488 416 L 489 416 L 489 413 L 490 413 L 490 412 L 492 412 L 492 410 L 493 410 L 493 409 L 494 409 L 494 408 L 499 408 L 499 407 L 500 407 L 500 404 L 502 404 L 502 403 L 503 403 L 503 401 L 504 401 L 504 400 L 506 400 L 506 398 L 507 398 L 507 396 L 508 396 L 508 395 Z M 159 412 L 159 413 L 160 413 L 160 414 L 161 414 L 161 417 L 168 417 L 168 420 L 169 420 L 169 421 L 171 421 L 171 423 L 172 423 L 172 425 L 176 425 L 176 426 L 177 426 L 177 429 L 181 429 L 181 430 L 182 430 L 182 433 L 187 433 L 187 434 L 189 434 L 189 436 L 190 436 L 190 438 L 192 438 L 192 439 L 193 439 L 193 442 L 195 442 L 195 443 L 196 443 L 196 449 L 195 449 L 195 450 L 193 450 L 193 453 L 192 453 L 192 454 L 182 454 L 182 453 L 181 453 L 181 451 L 180 451 L 180 450 L 178 450 L 178 448 L 177 448 L 177 446 L 175 446 L 175 445 L 174 445 L 174 443 L 173 443 L 173 442 L 169 442 L 169 441 L 167 441 L 167 439 L 166 439 L 166 438 L 165 438 L 165 437 L 164 437 L 164 436 L 163 436 L 163 434 L 162 434 L 162 433 L 160 433 L 160 431 L 159 431 L 159 429 L 157 429 L 157 428 L 156 428 L 156 425 L 151 425 L 151 424 L 149 424 L 149 418 L 150 418 L 150 417 L 155 417 L 155 416 L 156 416 L 156 414 L 157 414 L 157 413 L 158 413 L 158 412 Z M 557 412 L 557 413 L 558 413 L 558 416 L 559 416 L 559 417 L 561 417 L 561 420 L 559 420 L 559 421 L 558 421 L 558 424 L 556 424 L 556 425 L 553 425 L 553 427 L 552 427 L 552 429 L 551 429 L 551 432 L 550 432 L 550 433 L 548 433 L 548 435 L 547 435 L 547 437 L 542 437 L 542 438 L 540 438 L 540 441 L 538 441 L 538 442 L 537 442 L 537 444 L 536 444 L 536 446 L 534 446 L 534 447 L 533 447 L 533 449 L 532 449 L 532 450 L 528 450 L 528 453 L 527 453 L 527 454 L 526 454 L 526 457 L 525 457 L 525 458 L 524 458 L 524 459 L 522 459 L 522 458 L 520 458 L 520 459 L 519 459 L 519 461 L 518 461 L 518 462 L 517 462 L 517 463 L 516 463 L 516 464 L 515 464 L 515 466 L 514 466 L 514 467 L 512 467 L 512 470 L 511 470 L 511 471 L 509 471 L 509 472 L 508 472 L 508 474 L 507 474 L 507 475 L 502 475 L 502 476 L 501 476 L 501 479 L 499 479 L 499 480 L 498 480 L 498 481 L 497 481 L 497 483 L 496 483 L 496 484 L 494 484 L 494 487 L 493 487 L 493 488 L 491 488 L 491 489 L 490 489 L 490 492 L 487 492 L 487 495 L 486 495 L 486 496 L 483 496 L 483 497 L 481 497 L 481 496 L 480 496 L 480 497 L 478 497 L 478 499 L 477 499 L 477 500 L 476 500 L 476 504 L 475 504 L 475 505 L 473 505 L 473 506 L 472 506 L 472 508 L 471 508 L 471 509 L 470 509 L 470 510 L 469 510 L 469 512 L 468 512 L 468 513 L 466 513 L 466 514 L 462 514 L 462 515 L 461 515 L 461 517 L 460 517 L 460 518 L 459 518 L 459 517 L 457 517 L 457 511 L 456 511 L 456 509 L 454 509 L 454 508 L 453 508 L 453 501 L 454 501 L 454 500 L 453 500 L 453 498 L 454 498 L 454 497 L 460 497 L 460 494 L 461 494 L 461 493 L 463 493 L 463 492 L 464 492 L 464 489 L 465 489 L 465 488 L 467 488 L 467 486 L 468 486 L 468 485 L 469 485 L 469 484 L 474 484 L 474 482 L 475 482 L 475 481 L 476 481 L 476 480 L 478 480 L 478 477 L 479 477 L 479 476 L 481 476 L 481 475 L 482 475 L 482 472 L 483 472 L 483 471 L 485 471 L 485 469 L 486 469 L 486 468 L 487 468 L 487 467 L 492 467 L 492 465 L 493 465 L 493 463 L 495 463 L 495 462 L 496 462 L 496 460 L 497 460 L 497 459 L 499 459 L 499 458 L 500 458 L 500 455 L 502 455 L 502 454 L 506 454 L 506 453 L 507 453 L 507 451 L 508 451 L 508 450 L 510 450 L 510 448 L 511 448 L 511 446 L 513 446 L 513 445 L 514 445 L 514 443 L 515 443 L 515 442 L 517 442 L 517 440 L 518 440 L 518 438 L 520 438 L 520 437 L 521 437 L 521 438 L 523 438 L 523 437 L 524 437 L 524 436 L 525 436 L 525 434 L 527 434 L 527 433 L 528 433 L 528 431 L 529 431 L 529 430 L 530 430 L 530 429 L 531 429 L 531 428 L 532 428 L 532 426 L 533 426 L 533 425 L 538 425 L 538 424 L 539 424 L 539 422 L 540 422 L 540 421 L 542 421 L 542 418 L 543 418 L 543 417 L 545 417 L 545 416 L 546 416 L 546 413 L 548 413 L 548 412 Z M 116 433 L 116 434 L 118 434 L 118 437 L 119 437 L 119 438 L 125 438 L 125 440 L 126 440 L 126 442 L 132 442 L 132 444 L 133 444 L 133 446 L 135 446 L 135 447 L 136 447 L 136 450 L 142 450 L 142 451 L 143 451 L 143 454 L 145 454 L 145 455 L 146 455 L 146 456 L 147 456 L 147 459 L 151 459 L 151 460 L 152 460 L 152 463 L 156 463 L 156 464 L 157 464 L 157 466 L 158 466 L 158 467 L 163 467 L 163 468 L 164 468 L 164 469 L 165 469 L 165 471 L 166 471 L 166 472 L 168 472 L 168 474 L 167 474 L 167 475 L 165 475 L 165 478 L 164 478 L 164 479 L 162 479 L 162 480 L 161 480 L 161 483 L 159 483 L 159 484 L 151 484 L 151 483 L 149 483 L 149 480 L 147 480 L 147 479 L 146 479 L 146 478 L 145 478 L 145 476 L 144 476 L 144 475 L 143 475 L 143 474 L 142 474 L 142 472 L 141 472 L 141 471 L 136 471 L 136 470 L 135 470 L 135 468 L 134 468 L 134 467 L 133 467 L 133 466 L 132 466 L 132 465 L 131 465 L 131 463 L 129 463 L 129 462 L 128 462 L 128 460 L 127 460 L 127 459 L 125 459 L 125 458 L 121 458 L 121 456 L 120 456 L 120 454 L 118 454 L 118 453 L 117 453 L 117 451 L 116 451 L 116 450 L 115 450 L 115 449 L 114 449 L 114 448 L 113 448 L 113 446 L 108 446 L 108 445 L 107 445 L 107 434 L 108 434 L 108 433 Z M 599 433 L 599 434 L 600 434 L 600 441 L 598 441 L 598 442 L 597 442 L 597 445 L 596 445 L 596 446 L 594 446 L 594 448 L 593 448 L 593 449 L 592 449 L 592 450 L 590 450 L 590 453 L 589 453 L 589 454 L 584 454 L 584 455 L 583 455 L 583 457 L 582 457 L 582 458 L 578 458 L 578 460 L 577 460 L 577 462 L 576 462 L 576 465 L 575 465 L 575 466 L 574 466 L 574 467 L 573 467 L 573 468 L 572 468 L 572 470 L 571 470 L 571 471 L 566 471 L 566 472 L 565 472 L 565 474 L 564 474 L 564 475 L 562 475 L 562 478 L 561 478 L 561 479 L 559 479 L 559 480 L 558 480 L 558 483 L 556 483 L 556 484 L 553 484 L 553 486 L 552 486 L 552 488 L 548 488 L 548 489 L 547 489 L 547 492 L 544 492 L 544 495 L 543 495 L 543 496 L 541 496 L 541 497 L 540 497 L 540 500 L 538 500 L 538 501 L 537 501 L 537 503 L 536 503 L 536 505 L 528 505 L 528 507 L 527 507 L 527 509 L 526 509 L 526 512 L 525 512 L 525 513 L 524 513 L 524 514 L 523 514 L 523 515 L 522 515 L 522 517 L 520 517 L 520 518 L 519 518 L 519 520 L 518 520 L 518 521 L 517 521 L 517 522 L 512 522 L 512 524 L 511 524 L 511 526 L 508 526 L 508 529 L 507 529 L 507 530 L 504 530 L 504 531 L 503 531 L 503 533 L 502 533 L 502 534 L 501 534 L 501 538 L 500 538 L 500 539 L 494 539 L 494 542 L 492 542 L 492 543 L 491 543 L 491 544 L 490 544 L 490 546 L 489 546 L 489 547 L 488 547 L 488 548 L 487 548 L 487 549 L 486 549 L 486 551 L 484 551 L 484 552 L 478 552 L 478 554 L 477 554 L 477 555 L 475 555 L 475 554 L 474 554 L 474 553 L 475 553 L 475 550 L 474 550 L 474 548 L 473 548 L 473 547 L 472 547 L 472 546 L 471 546 L 471 536 L 472 536 L 472 535 L 478 535 L 478 532 L 479 532 L 479 531 L 481 531 L 481 530 L 482 530 L 482 527 L 483 527 L 483 526 L 485 526 L 485 524 L 486 524 L 486 523 L 487 523 L 487 522 L 492 522 L 492 520 L 493 520 L 493 518 L 496 518 L 496 515 L 497 515 L 497 514 L 499 514 L 499 512 L 500 512 L 500 510 L 502 510 L 502 509 L 506 509 L 506 508 L 507 508 L 507 506 L 508 506 L 508 505 L 510 505 L 510 503 L 511 503 L 511 502 L 512 502 L 512 501 L 514 501 L 514 498 L 515 498 L 515 497 L 520 497 L 520 496 L 521 496 L 521 494 L 522 494 L 522 493 L 523 493 L 523 492 L 525 492 L 525 489 L 526 489 L 526 488 L 528 488 L 528 485 L 530 485 L 530 484 L 535 484 L 535 482 L 536 482 L 536 480 L 538 480 L 538 479 L 539 479 L 539 476 L 541 476 L 541 475 L 542 475 L 542 473 L 543 473 L 543 472 L 544 472 L 544 471 L 549 471 L 549 469 L 550 469 L 550 468 L 551 468 L 551 467 L 553 467 L 553 464 L 554 464 L 554 463 L 556 463 L 556 462 L 557 462 L 557 459 L 563 459 L 563 457 L 564 457 L 564 455 L 566 455 L 566 454 L 567 454 L 567 452 L 568 452 L 568 450 L 571 450 L 571 447 L 572 447 L 572 446 L 577 446 L 577 445 L 578 445 L 578 443 L 579 443 L 579 442 L 581 442 L 581 440 L 582 440 L 582 438 L 584 438 L 584 437 L 585 437 L 585 435 L 586 435 L 586 434 L 587 434 L 587 433 Z M 217 467 L 217 468 L 218 468 L 218 471 L 223 471 L 223 472 L 225 472 L 225 476 L 226 476 L 226 477 L 227 477 L 227 480 L 235 480 L 235 481 L 236 481 L 236 484 L 238 484 L 238 485 L 239 485 L 239 488 L 241 488 L 241 489 L 243 489 L 243 492 L 244 492 L 244 493 L 250 493 L 250 497 L 251 497 L 251 498 L 252 498 L 252 501 L 256 501 L 256 502 L 257 502 L 257 508 L 256 508 L 256 509 L 253 509 L 253 510 L 252 510 L 252 512 L 251 512 L 251 513 L 246 513 L 246 512 L 245 512 L 245 510 L 244 510 L 244 509 L 242 509 L 242 506 L 241 506 L 241 505 L 236 505 L 236 504 L 235 504 L 235 503 L 234 503 L 234 501 L 233 501 L 233 500 L 231 500 L 231 497 L 229 497 L 229 496 L 228 496 L 228 495 L 227 495 L 227 493 L 226 493 L 226 492 L 221 492 L 221 491 L 220 491 L 220 488 L 217 488 L 217 486 L 216 486 L 216 484 L 214 484 L 214 483 L 213 483 L 213 480 L 208 480 L 208 479 L 206 479 L 206 472 L 208 472 L 208 471 L 209 471 L 209 470 L 210 470 L 210 468 L 211 468 L 211 467 Z M 401 471 L 401 472 L 402 472 L 402 473 L 403 473 L 403 476 L 407 476 L 407 477 L 408 477 L 408 479 L 407 479 L 407 481 L 408 481 L 408 484 L 410 484 L 410 485 L 411 485 L 411 488 L 371 488 L 371 481 L 370 481 L 370 480 L 369 480 L 369 479 L 368 479 L 368 478 L 367 478 L 367 473 L 368 473 L 368 471 Z M 343 476 L 343 479 L 341 479 L 341 480 L 340 480 L 340 483 L 339 483 L 339 485 L 340 485 L 340 487 L 339 487 L 339 489 L 340 489 L 340 491 L 339 491 L 339 492 L 300 492 L 300 491 L 299 491 L 299 489 L 301 489 L 301 488 L 302 488 L 302 485 L 303 485 L 303 480 L 306 480 L 306 477 L 307 477 L 307 476 Z M 189 493 L 189 495 L 190 495 L 190 497 L 196 497 L 196 499 L 197 499 L 197 501 L 199 501 L 199 502 L 200 502 L 200 505 L 201 505 L 201 506 L 202 506 L 202 509 L 205 509 L 205 510 L 207 510 L 207 513 L 208 513 L 208 514 L 210 514 L 210 515 L 211 515 L 211 518 L 214 518 L 214 521 L 215 521 L 215 522 L 220 522 L 220 523 L 221 523 L 221 524 L 222 524 L 222 526 L 224 526 L 224 527 L 225 527 L 225 530 L 226 530 L 226 532 L 227 532 L 227 535 L 232 535 L 232 537 L 233 537 L 233 539 L 235 539 L 235 540 L 236 540 L 236 543 L 238 543 L 238 544 L 239 544 L 239 551 L 237 551 L 237 552 L 236 552 L 236 555 L 234 555 L 234 556 L 225 556 L 225 555 L 224 555 L 224 552 L 222 552 L 222 551 L 221 551 L 221 550 L 220 550 L 220 548 L 219 548 L 219 547 L 218 547 L 218 546 L 217 546 L 217 544 L 216 544 L 216 543 L 211 543 L 211 542 L 210 542 L 210 540 L 209 540 L 209 539 L 207 539 L 207 538 L 206 538 L 206 535 L 204 535 L 204 534 L 203 534 L 203 533 L 202 533 L 202 531 L 201 531 L 201 530 L 200 530 L 200 529 L 199 529 L 199 526 L 193 526 L 193 525 L 192 525 L 192 523 L 191 523 L 191 522 L 189 522 L 189 520 L 188 520 L 188 518 L 187 518 L 187 517 L 185 517 L 185 515 L 184 515 L 184 514 L 183 514 L 183 513 L 178 513 L 178 502 L 179 502 L 179 501 L 181 501 L 181 498 L 182 498 L 182 497 L 184 497 L 184 495 L 185 495 L 185 493 Z M 422 514 L 422 518 L 425 518 L 425 519 L 426 519 L 426 521 L 425 521 L 425 523 L 426 523 L 426 527 L 427 527 L 427 530 L 400 530 L 400 531 L 287 531 L 287 530 L 285 530 L 285 519 L 286 519 L 286 518 L 288 518 L 288 515 L 289 515 L 289 514 Z M 339 552 L 339 553 L 340 553 L 340 555 L 339 555 L 339 557 L 340 557 L 340 559 L 339 559 L 339 561 L 340 561 L 340 563 L 339 563 L 339 564 L 337 564 L 337 565 L 336 565 L 336 568 L 334 568 L 334 569 L 269 569 L 269 568 L 267 568 L 267 561 L 268 561 L 268 560 L 270 560 L 270 557 L 271 557 L 271 552 Z M 439 552 L 439 553 L 440 553 L 440 556 L 442 556 L 442 557 L 443 557 L 443 562 L 444 562 L 444 564 L 445 564 L 445 565 L 447 565 L 447 568 L 444 568 L 444 569 L 366 569 L 366 568 L 364 568 L 364 552 Z" style="fill: rgb(51, 255, 51);"/>
</svg>