<?xml version="1.0" encoding="UTF-8" standalone="no"?>
<svg version="1.1" id="Layer_1" xmlns="http://www.w3.org/2000/svg" xmlns:xlink="http://www.w3.org/1999/xlink" x="0px" y="0px"
	 width="100%" viewBox="0 0 905 759" enable-background="new 0 0 905 759" xml:space="preserve">
<style>
  .dharma-fill {
    fill: #00ffcc;
  }
  .dharma-stroke {
    stroke: #00ffcc;
    stroke-width: 3px;
    fill: none;
  }
</style>

<!-- DHARMA Octagon Logo -->
<g transform="translate(452.5, 379.5) scale(0.8)">
  <!-- Outer octagon -->
  <path class="dharma-stroke" d="M0,-250 L176.78,-176.78 L250,0 L176.78,176.78 L0,250 L-176.78,176.78 L-250,0 L-176.78,-250 Z" />
  
  <!-- Inner octagon -->
  <path class="dharma-stroke" d="M0,-160 L113.14,-113.14 L160,0 L113.14,113.14 L0,160 L-113.14,113.14 L-160,0 L-113.14,-113.14 Z" />
  
  <!-- Center emblem - Swan station -->
  <circle class="dharma-stroke" cx="0" cy="0" r="85" />
  <path class="dharma-stroke" d="M0,-40 A45,45 0 1,1 0,40 A45,45 0 1,1 0,-40 Z" />
  <path class="dharma-fill" d="M-10,0 C-10,-30 35,-25 35,5 C35,35 -10,10 -10,0 Z" />
  <circle class="dharma-fill" cx="20" cy="-15" r="8" />
  
  <!-- I-Ching trigrams - 8 positions around the octagon -->
  <!-- Top -->
  <g transform="translate(0, -205)">
    <line class="dharma-stroke" x1="-35" y1="0" x2="35" y2="0" />
    <line class="dharma-stroke" x1="-35" y1="-15" x2="35" y2="-15" />
    <line class="dharma-stroke" x1="-35" y1="-30" x2="35" y2="-30" />
  </g>
  
  <!-- Top Right -->
  <g transform="translate(145, -145) rotate(45)">
    <line class="dharma-stroke" x1="-35" y1="0" x2="-10" y2="0" />
    <line class="dharma-stroke" x1="10" y1="0" x2="35" y2="0" />
    <line class="dharma-stroke" x1="-35" y1="-15" x2="-10" y2="-15" />
    <line class="dharma-stroke" x1="10" y1="-15" x2="35" y2="-15" />
    <line class="dharma-stroke" x1="-35" y1="-30" x2="35" y2="-30" />
  </g>
  
  <!-- Right -->
  <g transform="translate(205, 0) rotate(90)">
    <line class="dharma-stroke" x1="-35" y1="0" x2="35" y2="0" />
    <line class="dharma-stroke" x1="-35" y1="-15" x2="-10" y2="-15" />
    <line class="dharma-stroke" x1="10" y1="-15" x2="35" y2="-15" />
    <line class="dharma-stroke" x1="-35" y1="-30" x2="-10" y2="-30" />
    <line class="dharma-stroke" x1="10" y1="-30" x2="35" y2="-30" />
  </g>
  
  <!-- Bottom Right -->
  <g transform="translate(145, 145) rotate(135)">
    <line class="dharma-stroke" x1="-35" y1="0" x2="-10" y2="0" />
    <line class="dharma-stroke" x1="10" y1="0" x2="35" y2="0" />
    <line class="dharma-stroke" x1="-35" y1="-15" x2="35" y2="-15" />
    <line class="dharma-stroke" x1="-35" y1="-30" x2="-10" y2="-30" />
    <line class="dharma-stroke" x1="10" y1="-30" x2="35" y2="-30" />
  </g>
  
  <!-- Bottom -->
  <g transform="translate(0, 205) rotate(180)">
    <line class="dharma-stroke" x1="-35" y1="0" x2="35" y2="0" />
    <line class="dharma-stroke" x1="-35" y1="-15" x2="35" y2="-15" />
    <line class="dharma-stroke" x1="-35" y1="-30" x2="35" y2="-30" />
  </g>
  
  <!-- Bottom Left -->
  <g transform="translate(-145, 145) rotate(225)">
    <line class="dharma-stroke" x1="-35" y1="0" x2="35" y2="0" />
    <line class="dharma-stroke" x1="-35" y1="-15" x2="-10" y2="-15" />
    <line class="dharma-stroke" x1="10" y1="-15" x2="35" y2="-15" />
    <line class="dharma-stroke" x1="-35" y1="-30" x2="35" y2="-30" />
  </g>
  
  <!-- Left -->
  <g transform="translate(-205, 0) rotate(270)">
    <line class="dharma-stroke" x1="-35" y1="0" x2="-10" y2="0" />
    <line class="dharma-stroke" x1="10" y1="0" x2="35" y2="0" />
    <line class="dharma-stroke" x1="-35" y1="-15" x2="35" y2="-15" />
    <line class="dharma-stroke" x1="-35" y1="-30" x2="35" y2="-30" />
  </g>
  
  <!-- Top Left -->
  <g transform="translate(-145, -145) rotate(315)">
    <line class="dharma-stroke" x1="-35" y1="0" x2="35" y2="0" />
    <line class="dharma-stroke" x1="-35" y1="-15" x2="-10" y2="-15" />
    <line class="dharma-stroke" x1="10" y1="-15" x2="35" y2="-15" />
    <line class="dharma-stroke" x1="-35" y1="-30" x2="-10" y2="-30" />
    <line class="dharma-stroke" x1="10" y1="-30" x2="35" y2="-30" />
  </g>
</g>
</svg>